<?xml version="1.0" encoding="UTF-8"?>
<svg xmlns="http://www.w3.org/2000/svg" xmlns:xlink="http://www.w3.org/1999/xlink" width="1080" height="1920" viewBox="0 0 1080 1920">
<defs>
<g>
<g id="glyph-0-0">
<path d="M 2.625 0 L 2.625 -7.191406 L 0 -7.191406 L 0 -8.886719 L 7.484375 -8.886719 L 7.484375 -7.191406 L 4.859375 -7.191406 L 4.859375 0 Z "/>
</g>
<g id="glyph-0-1">
<path d="M 5.300781 -4.726562 L 5.125 -4.726562 C 5.046875 -4.753906 4.929688 -4.777344 4.78125 -4.789062 C 4.628906 -4.804688 4.460938 -4.808594 4.277344 -4.808594 C 4.058594 -4.808594 3.832031 -4.777344 3.589844 -4.714844 C 3.347656 -4.652344 3.117188 -4.574219 2.886719 -4.488281 L 2.886719 0 L 0.800781 0 L 0.800781 -6.703125 L 2.886719 -6.703125 L 2.886719 -5.742188 C 2.984375 -5.828125 3.117188 -5.9375 3.285156 -6.074219 C 3.453125 -6.207031 3.609375 -6.3125 3.746094 -6.390625 C 3.898438 -6.484375 4.074219 -6.5625 4.277344 -6.628906 C 4.476562 -6.691406 4.667969 -6.726562 4.847656 -6.726562 C 4.914062 -6.726562 4.988281 -6.722656 5.074219 -6.71875 C 5.15625 -6.714844 5.230469 -6.710938 5.300781 -6.703125 Z "/>
</g>
<g id="glyph-0-2">
<path d="M 7.023438 0 L 4.9375 0 L 4.9375 -0.738281 C 4.574219 -0.4375 4.242188 -0.207031 3.9375 -0.0507812 C 3.636719 0.105469 3.277344 0.183594 2.859375 0.183594 C 2.195312 0.183594 1.675781 -0.0234375 1.304688 -0.445312 C 0.933594 -0.863281 0.746094 -1.496094 0.746094 -2.339844 L 0.746094 -6.703125 L 2.847656 -6.703125 L 2.847656 -3.378906 C 2.847656 -3.03125 2.855469 -2.75 2.875 -2.53125 C 2.890625 -2.3125 2.933594 -2.125 3 -1.976562 C 3.066406 -1.835938 3.164062 -1.730469 3.296875 -1.660156 C 3.429688 -1.585938 3.617188 -1.550781 3.855469 -1.550781 C 4.003906 -1.550781 4.175781 -1.585938 4.378906 -1.660156 C 4.578125 -1.730469 4.765625 -1.828125 4.9375 -1.953125 L 4.9375 -6.703125 L 7.023438 -6.703125 L 7.023438 0 M 4.941406 2.523438 L 2.792969 2.523438 L 2.792969 0.894531 L 4.941406 0.894531 Z "/>
</g>
<g id="glyph-0-3">
<path d="M 4.089844 0.179688 C 3.535156 0.179688 3.027344 0.109375 2.570312 -0.03125 C 2.109375 -0.167969 1.710938 -0.382812 1.371094 -0.675781 C 1.039062 -0.964844 0.777344 -1.328125 0.589844 -1.769531 C 0.402344 -2.210938 0.308594 -2.726562 0.308594 -3.324219 C 0.308594 -3.964844 0.410156 -4.511719 0.613281 -4.960938 C 0.816406 -5.410156 1.09375 -5.777344 1.4375 -6.070312 C 1.773438 -6.347656 2.164062 -6.554688 2.617188 -6.6875 C 3.070312 -6.820312 3.539062 -6.886719 4.027344 -6.886719 C 4.398438 -6.886719 4.769531 -6.84375 5.136719 -6.757812 C 5.507812 -6.671875 5.878906 -6.535156 6.253906 -6.351562 L 6.253906 -4.558594 L 5.984375 -4.558594 C 5.902344 -4.640625 5.800781 -4.726562 5.679688 -4.820312 C 5.558594 -4.917969 5.425781 -5.003906 5.28125 -5.085938 C 5.128906 -5.167969 4.960938 -5.238281 4.769531 -5.296875 C 4.578125 -5.355469 4.363281 -5.382812 4.128906 -5.382812 C 3.597656 -5.382812 3.183594 -5.195312 2.890625 -4.824219 C 2.597656 -4.453125 2.453125 -3.953125 2.453125 -3.324219 C 2.453125 -2.652344 2.609375 -2.152344 2.921875 -1.820312 C 3.234375 -1.488281 3.648438 -1.324219 4.164062 -1.324219 C 4.429688 -1.324219 4.660156 -1.355469 4.859375 -1.414062 C 5.058594 -1.472656 5.226562 -1.546875 5.371094 -1.628906 C 5.511719 -1.710938 5.628906 -1.800781 5.730469 -1.890625 C 5.828125 -1.976562 5.914062 -2.058594 5.984375 -2.128906 L 6.253906 -2.128906 L 6.253906 -0.339844 C 6.136719 -0.289062 5.996094 -0.230469 5.839844 -0.160156 C 5.683594 -0.09375 5.523438 -0.0390625 5.359375 0.0078125 C 5.15625 0.0625 4.964844 0.105469 4.789062 0.132812 C 4.613281 0.164062 4.378906 0.179688 4.089844 0.179688 Z "/>
</g>
<g id="glyph-0-4">
</g>
<g id="glyph-0-5">
<path d="M 3.367188 0.132812 C 2.515625 0.132812 1.894531 -0.0429688 1.507812 -0.394531 C 1.117188 -0.742188 0.925781 -1.316406 0.925781 -2.113281 L 0.925781 -5.246094 L 0.125 -5.246094 L 0.125 -6.703125 L 0.925781 -6.703125 L 0.925781 -8.617188 L 3.015625 -8.617188 L 3.015625 -6.703125 L 5.023438 -6.703125 L 5.023438 -5.246094 L 3.015625 -5.246094 L 3.015625 -2.871094 C 3.015625 -2.636719 3.015625 -2.429688 3.019531 -2.257812 C 3.023438 -2.082031 3.054688 -1.921875 3.117188 -1.785156 C 3.171875 -1.644531 3.269531 -1.535156 3.410156 -1.453125 C 3.550781 -1.371094 3.757812 -1.332031 4.027344 -1.332031 C 4.140625 -1.332031 4.285156 -1.355469 4.46875 -1.402344 C 4.648438 -1.449219 4.773438 -1.492188 4.847656 -1.535156 L 5.023438 -1.535156 L 5.023438 -0.0585938 C 4.796875 0 4.558594 0.046875 4.304688 0.0820312 C 4.046875 0.113281 3.734375 0.132812 3.367188 0.132812 Z "/>
</g>
<g id="glyph-0-6">
<path d="M 7.234375 -3.347656 C 7.234375 -2.246094 6.933594 -1.378906 6.328125 -0.742188 C 5.726562 -0.109375 4.875 0.207031 3.773438 0.207031 C 2.675781 0.207031 1.828125 -0.109375 1.21875 -0.742188 C 0.613281 -1.378906 0.308594 -2.246094 0.308594 -3.347656 C 0.308594 -4.460938 0.613281 -5.335938 1.21875 -5.964844 C 1.828125 -6.597656 2.675781 -6.910156 3.773438 -6.910156 C 4.871094 -6.910156 5.722656 -6.59375 6.328125 -5.960938 C 6.929688 -5.324219 7.234375 -4.453125 7.234375 -3.347656 M 5.089844 -3.335938 C 5.089844 -3.734375 5.058594 -4.066406 4.992188 -4.328125 C 4.925781 -4.59375 4.835938 -4.804688 4.722656 -4.964844 C 4.597656 -5.132812 4.457031 -5.25 4.304688 -5.316406 C 4.148438 -5.378906 3.972656 -5.414062 3.773438 -5.414062 C 3.585938 -5.414062 3.414062 -5.382812 3.265625 -5.328125 C 3.113281 -5.269531 2.972656 -5.160156 2.847656 -4.996094 C 2.726562 -4.839844 2.632812 -4.628906 2.558594 -4.355469 C 2.488281 -4.085938 2.453125 -3.746094 2.453125 -3.335938 C 2.453125 -2.925781 2.488281 -2.59375 2.554688 -2.34375 C 2.621094 -2.089844 2.710938 -1.886719 2.816406 -1.738281 C 2.929688 -1.582031 3.066406 -1.46875 3.234375 -1.398438 C 3.402344 -1.324219 3.585938 -1.289062 3.789062 -1.289062 C 3.957031 -1.289062 4.125 -1.324219 4.300781 -1.398438 C 4.472656 -1.46875 4.613281 -1.574219 4.714844 -1.71875 C 4.839844 -1.890625 4.929688 -2.097656 4.996094 -2.335938 C 5.058594 -2.578125 5.089844 -2.910156 5.089844 -3.335938 M 4.859375 2.523438 L 2.710938 2.523438 L 2.710938 0.894531 L 4.859375 0.894531 Z "/>
</g>
<g id="glyph-0-7">
<path d="M 4.492188 -1.75 L 4.492188 -3.144531 C 4.140625 -3.109375 3.851562 -3.078125 3.632812 -3.050781 C 3.414062 -3.027344 3.199219 -2.976562 2.988281 -2.902344 C 2.808594 -2.835938 2.664062 -2.742188 2.5625 -2.609375 C 2.460938 -2.480469 2.410156 -2.308594 2.410156 -2.09375 C 2.410156 -1.78125 2.496094 -1.566406 2.664062 -1.445312 C 2.832031 -1.328125 3.082031 -1.269531 3.414062 -1.269531 C 3.597656 -1.269531 3.785156 -1.3125 3.976562 -1.398438 C 4.164062 -1.480469 4.339844 -1.597656 4.492188 -1.75 M 4.492188 -0.710938 C 4.351562 -0.589844 4.222656 -0.484375 4.109375 -0.386719 C 3.996094 -0.292969 3.84375 -0.195312 3.652344 -0.101562 C 3.464844 -0.0117188 3.285156 0.0585938 3.105469 0.109375 C 2.929688 0.15625 2.683594 0.179688 2.363281 0.179688 C 1.769531 0.179688 1.277344 -0.0195312 0.886719 -0.417969 C 0.496094 -0.816406 0.296875 -1.316406 0.296875 -1.921875 C 0.296875 -2.417969 0.398438 -2.820312 0.597656 -3.128906 C 0.796875 -3.433594 1.082031 -3.675781 1.457031 -3.855469 C 1.835938 -4.039062 2.285156 -4.164062 2.8125 -4.238281 C 3.335938 -4.308594 3.902344 -4.363281 4.507812 -4.40625 L 4.507812 -4.441406 C 4.507812 -4.808594 4.371094 -5.066406 4.097656 -5.207031 C 3.824219 -5.347656 3.414062 -5.417969 2.871094 -5.417969 C 2.625 -5.417969 2.335938 -5.375 2.003906 -5.285156 C 1.675781 -5.195312 1.351562 -5.082031 1.039062 -4.941406 L 0.859375 -4.941406 L 0.859375 -6.558594 C 1.066406 -6.617188 1.402344 -6.6875 1.863281 -6.769531 C 2.324219 -6.851562 2.789062 -6.894531 3.257812 -6.894531 C 4.414062 -6.894531 5.253906 -6.703125 5.78125 -6.316406 C 6.308594 -5.933594 6.570312 -5.347656 6.570312 -4.558594 L 6.570312 0 L 4.492188 0 Z "/>
</g>
<g id="glyph-0-8">
<path d="M 6.882812 0 L 4.804688 0 L 4.804688 -0.699219 C 4.667969 -0.585938 4.515625 -0.46875 4.339844 -0.339844 C 4.167969 -0.210938 4.015625 -0.117188 3.886719 -0.0546875 C 3.71875 0.0273438 3.554688 0.0859375 3.390625 0.125 C 3.226562 0.164062 3.03125 0.183594 2.804688 0.183594 C 2.042969 0.183594 1.4375 -0.132812 0.992188 -0.765625 C 0.546875 -1.398438 0.324219 -2.242188 0.324219 -3.300781 C 0.324219 -3.886719 0.398438 -4.390625 0.550781 -4.820312 C 0.699219 -5.246094 0.910156 -5.621094 1.175781 -5.9375 C 1.40625 -6.214844 1.699219 -6.441406 2.050781 -6.613281 C 2.402344 -6.785156 2.769531 -6.871094 3.15625 -6.871094 C 3.507812 -6.871094 3.792969 -6.832031 4.019531 -6.757812 C 4.246094 -6.683594 4.507812 -6.570312 4.804688 -6.414062 L 4.804688 -7.382812 L 2.90625 -7.382812 L 2.90625 -8.617188 L 4.804688 -8.617188 L 4.804688 -9.285156 L 6.882812 -9.285156 L 6.882812 -8.617188 L 7.652344 -8.617188 L 7.652344 -7.382812 L 6.882812 -7.382812 L 6.882812 0 M 4.804688 -1.851562 L 4.804688 -5.121094 C 4.699219 -5.171875 4.566406 -5.214844 4.398438 -5.25 C 4.230469 -5.28125 4.089844 -5.300781 3.96875 -5.300781 C 3.46875 -5.300781 3.089844 -5.128906 2.835938 -4.785156 C 2.585938 -4.4375 2.457031 -3.953125 2.457031 -3.324219 C 2.457031 -2.664062 2.558594 -2.1875 2.761719 -1.890625 C 2.960938 -1.597656 3.285156 -1.449219 3.734375 -1.449219 C 3.917969 -1.449219 4.105469 -1.484375 4.292969 -1.558594 C 4.476562 -1.628906 4.648438 -1.726562 4.804688 -1.851562 Z "/>
</g>
<g id="glyph-0-9">
<path d="M 7.234375 -3.347656 C 7.234375 -2.246094 6.933594 -1.378906 6.328125 -0.742188 C 5.726562 -0.109375 4.875 0.207031 3.773438 0.207031 C 2.675781 0.207031 1.828125 -0.109375 1.21875 -0.742188 C 0.613281 -1.378906 0.308594 -2.246094 0.308594 -3.347656 C 0.308594 -4.460938 0.613281 -5.335938 1.21875 -5.964844 C 1.828125 -6.597656 2.675781 -6.910156 3.773438 -6.910156 C 4.871094 -6.910156 5.722656 -6.59375 6.328125 -5.960938 C 6.929688 -5.324219 7.234375 -4.453125 7.234375 -3.347656 M 5.089844 -3.335938 C 5.089844 -3.734375 5.058594 -4.066406 4.992188 -4.328125 C 4.925781 -4.59375 4.835938 -4.804688 4.722656 -4.964844 C 4.597656 -5.132812 4.457031 -5.25 4.304688 -5.316406 C 4.148438 -5.378906 3.972656 -5.414062 3.773438 -5.414062 C 3.585938 -5.414062 3.414062 -5.382812 3.265625 -5.328125 C 3.113281 -5.269531 2.972656 -5.160156 2.847656 -4.996094 C 2.726562 -4.839844 2.632812 -4.628906 2.558594 -4.355469 C 2.488281 -4.085938 2.453125 -3.746094 2.453125 -3.335938 C 2.453125 -2.925781 2.488281 -2.59375 2.554688 -2.34375 C 2.621094 -2.089844 2.710938 -1.886719 2.816406 -1.738281 C 2.929688 -1.582031 3.066406 -1.46875 3.234375 -1.398438 C 3.402344 -1.324219 3.585938 -1.289062 3.789062 -1.289062 C 3.957031 -1.289062 4.125 -1.324219 4.300781 -1.398438 C 4.472656 -1.46875 4.613281 -1.574219 4.714844 -1.71875 C 4.839844 -1.890625 4.929688 -2.097656 4.996094 -2.335938 C 5.058594 -2.578125 5.089844 -2.910156 5.089844 -3.335938 M 6.3125 -7.65625 L 4.769531 -7.65625 L 3.785156 -8.929688 L 2.804688 -7.65625 L 1.28125 -7.65625 L 3.078125 -10.003906 L 4.519531 -10.003906 L 6.3125 -7.65625 M 4.859375 2.523438 L 2.710938 2.523438 L 2.710938 0.894531 L 4.859375 0.894531 Z "/>
</g>
<g id="glyph-0-10">
<path d="M 9.011719 -4.441406 C 9.011719 -3.003906 8.628906 -1.875 7.859375 -1.050781 C 7.09375 -0.226562 6.039062 0.183594 4.703125 0.183594 C 3.363281 0.183594 2.308594 -0.230469 1.546875 -1.066406 C 0.78125 -1.898438 0.398438 -3.023438 0.398438 -4.441406 C 0.398438 -5.867188 0.78125 -6.996094 1.546875 -7.828125 C 2.308594 -8.65625 3.363281 -9.070312 4.703125 -9.070312 C 6.039062 -9.070312 7.09375 -8.660156 7.859375 -7.832031 C 8.628906 -7.007812 9.011719 -5.875 9.011719 -4.441406 M 6.707031 -4.445312 C 6.707031 -4.976562 6.652344 -5.425781 6.542969 -5.796875 C 6.433594 -6.171875 6.289062 -6.476562 6.105469 -6.714844 C 5.914062 -6.957031 5.699219 -7.132812 5.457031 -7.234375 C 5.21875 -7.339844 4.96875 -7.394531 4.707031 -7.394531 C 4.433594 -7.394531 4.1875 -7.347656 3.960938 -7.25 C 3.738281 -7.152344 3.523438 -6.976562 3.316406 -6.726562 C 3.136719 -6.496094 2.988281 -6.1875 2.875 -5.808594 C 2.761719 -5.425781 2.703125 -4.96875 2.703125 -4.441406 C 2.703125 -3.894531 2.757812 -3.441406 2.863281 -3.082031 C 2.972656 -2.722656 3.121094 -2.421875 3.304688 -2.179688 C 3.496094 -1.933594 3.714844 -1.753906 3.957031 -1.648438 C 4.199219 -1.542969 4.449219 -1.492188 4.707031 -1.492188 C 4.972656 -1.492188 5.226562 -1.546875 5.472656 -1.664062 C 5.71875 -1.777344 5.933594 -1.953125 6.109375 -2.191406 C 6.300781 -2.449219 6.449219 -2.75 6.554688 -3.09375 C 6.65625 -3.4375 6.707031 -3.890625 6.707031 -4.445312 Z "/>
</g>
<g id="glyph-0-11">
<path d="M 7.414062 0 L 4.964844 0 L 3.6875 -1.925781 L 2.375 0 L -0.0234375 0 L 2.441406 -3.347656 L 0.0195312 -6.703125 L 2.464844 -6.703125 L 3.71875 -4.808594 L 4.976562 -6.703125 L 7.382812 -6.703125 L 4.953125 -3.402344 Z "/>
</g>
</g>
</defs>
<g fill="rgb(100%, 100%, 100%)" fill-opacity="1">
<use xlink:href="#glyph-0-0" x="30" y="32.228516"/>
<use xlink:href="#glyph-0-1" x="37" y="32.228516"/>
<use xlink:href="#glyph-0-2" x="42" y="32.228516"/>
<use xlink:href="#glyph-0-3" x="50" y="32.228516"/>
<use xlink:href="#glyph-0-4" x="56" y="32.228516"/>
<use xlink:href="#glyph-0-5" x="60" y="32.228516"/>
<use xlink:href="#glyph-0-6" x="65" y="32.228516"/>
<use xlink:href="#glyph-0-7" x="73" y="32.228516"/>
<use xlink:href="#glyph-0-4" x="80" y="32.228516"/>
<use xlink:href="#glyph-0-8" x="84" y="32.228516"/>
<use xlink:href="#glyph-0-9" x="92" y="32.228516"/>
<use xlink:href="#glyph-0-4" x="100" y="32.228516"/>
<use xlink:href="#glyph-0-10" x="104" y="32.228516"/>
<use xlink:href="#glyph-0-11" x="113" y="32.228516"/>
</g>
</svg>
