<?xml version="1.0" encoding="UTF-8"?>
<svg xmlns="http://www.w3.org/2000/svg" xmlns:xlink="http://www.w3.org/1999/xlink" width="1920" height="1080" viewBox="0 0 1920 1080">
<defs>
<g>
<g id="glyph-0-0">
<path d="M 1.0625 -1.964844 L 1.0625 -0.304688 L 1.371094 -0.304688 C 1.441406 -0.304688 1.496094 -0.289062 1.527344 -0.261719 C 1.558594 -0.234375 1.574219 -0.195312 1.574219 -0.152344 C 1.574219 -0.105469 1.558594 -0.0703125 1.527344 -0.0429688 C 1.496094 -0.015625 1.441406 0 1.371094 0 L 0.453125 0 C 0.382812 0 0.328125 -0.015625 0.296875 -0.0429688 C 0.265625 -0.0703125 0.25 -0.105469 0.25 -0.152344 C 0.25 -0.195312 0.265625 -0.234375 0.296875 -0.261719 C 0.328125 -0.289062 0.382812 -0.304688 0.453125 -0.304688 L 0.761719 -0.304688 L 0.761719 -1.570312 L 0.488281 -1.496094 C 0.445312 -1.484375 0.414062 -1.480469 0.390625 -1.480469 C 0.355469 -1.480469 0.320312 -1.496094 0.292969 -1.527344 C 0.265625 -1.554688 0.25 -1.59375 0.25 -1.636719 C 0.25 -1.679688 0.261719 -1.710938 0.28125 -1.734375 C 0.300781 -1.757812 0.34375 -1.777344 0.410156 -1.792969 Z "/>
</g>
<g id="glyph-0-1">
<path d="M 0.597656 -0.75 L 0.597656 -0.304688 L 1.371094 -0.304688 L 1.371094 -0.46875 C 1.371094 -0.539062 1.386719 -0.59375 1.414062 -0.625 C 1.441406 -0.65625 1.480469 -0.671875 1.523438 -0.671875 C 1.570312 -0.671875 1.605469 -0.65625 1.632812 -0.625 C 1.660156 -0.59375 1.675781 -0.539062 1.675781 -0.46875 L 1.675781 0 L 0.246094 0 C 0.175781 0 0.121094 -0.015625 0.0898438 -0.0429688 C 0.0585938 -0.0703125 0.0429688 -0.105469 0.0429688 -0.152344 C 0.0429688 -0.195312 0.0585938 -0.234375 0.0898438 -0.261719 C 0.125 -0.289062 0.175781 -0.304688 0.246094 -0.304688 L 0.292969 -0.304688 L 0.292969 -1.488281 L 0.246094 -1.488281 C 0.175781 -1.488281 0.121094 -1.503906 0.0898438 -1.53125 C 0.0585938 -1.558594 0.0429688 -1.597656 0.0429688 -1.640625 C 0.0429688 -1.6875 0.0585938 -1.722656 0.0898438 -1.753906 C 0.121094 -1.78125 0.175781 -1.792969 0.246094 -1.792969 L 1.609375 -1.792969 L 1.609375 -1.332031 C 1.609375 -1.257812 1.59375 -1.207031 1.566406 -1.175781 C 1.539062 -1.144531 1.503906 -1.128906 1.457031 -1.128906 C 1.410156 -1.128906 1.375 -1.144531 1.347656 -1.175781 C 1.320312 -1.207031 1.304688 -1.257812 1.304688 -1.332031 L 1.304688 -1.488281 L 0.597656 -1.488281 L 0.597656 -1.050781 L 0.863281 -1.050781 C 0.863281 -1.132812 0.871094 -1.183594 0.886719 -1.203125 C 0.917969 -1.253906 0.960938 -1.277344 1.015625 -1.277344 C 1.0625 -1.277344 1.097656 -1.261719 1.125 -1.230469 C 1.152344 -1.199219 1.167969 -1.148438 1.167969 -1.074219 L 1.167969 -0.726562 C 1.167969 -0.660156 1.160156 -0.613281 1.144531 -0.59375 C 1.113281 -0.546875 1.070312 -0.523438 1.015625 -0.523438 C 0.960938 -0.523438 0.917969 -0.546875 0.886719 -0.59375 C 0.871094 -0.617188 0.863281 -0.667969 0.863281 -0.75 Z "/>
</g>
<g id="glyph-0-2">
<path d="M 1.386719 -1.714844 C 1.402344 -1.742188 1.425781 -1.761719 1.445312 -1.773438 C 1.46875 -1.785156 1.492188 -1.792969 1.519531 -1.792969 C 1.5625 -1.792969 1.597656 -1.777344 1.625 -1.746094 C 1.65625 -1.71875 1.667969 -1.664062 1.667969 -1.59375 L 1.667969 -1.335938 C 1.667969 -1.261719 1.65625 -1.210938 1.625 -1.179688 C 1.597656 -1.148438 1.5625 -1.132812 1.519531 -1.132812 C 1.476562 -1.132812 1.445312 -1.144531 1.421875 -1.164062 C 1.394531 -1.1875 1.378906 -1.230469 1.367188 -1.292969 C 1.359375 -1.335938 1.34375 -1.367188 1.324219 -1.390625 C 1.285156 -1.433594 1.226562 -1.46875 1.15625 -1.496094 C 1.082031 -1.523438 1.007812 -1.535156 0.9375 -1.535156 C 0.847656 -1.535156 0.761719 -1.515625 0.6875 -1.476562 C 0.609375 -1.4375 0.542969 -1.375 0.484375 -1.285156 C 0.425781 -1.195312 0.398438 -1.089844 0.398438 -0.96875 L 0.398438 -0.769531 C 0.398438 -0.625 0.449219 -0.503906 0.558594 -0.40625 C 0.664062 -0.308594 0.808594 -0.257812 1 -0.257812 C 1.109375 -0.257812 1.207031 -0.273438 1.285156 -0.304688 C 1.328125 -0.324219 1.378906 -0.359375 1.429688 -0.410156 C 1.460938 -0.441406 1.484375 -0.460938 1.503906 -0.472656 C 1.519531 -0.480469 1.542969 -0.484375 1.5625 -0.484375 C 1.605469 -0.484375 1.640625 -0.46875 1.671875 -0.4375 C 1.699219 -0.410156 1.714844 -0.371094 1.714844 -0.332031 C 1.714844 -0.289062 1.695312 -0.246094 1.652344 -0.199219 C 1.59375 -0.128906 1.515625 -0.0742188 1.421875 -0.0351562 C 1.292969 0.0195312 1.152344 0.0429688 1 0.0429688 C 0.820312 0.0429688 0.660156 0.0078125 0.515625 -0.0664062 C 0.398438 -0.125 0.300781 -0.21875 0.21875 -0.347656 C 0.136719 -0.476562 0.09375 -0.613281 0.09375 -0.765625 L 0.09375 -0.96875 C 0.09375 -1.128906 0.132812 -1.277344 0.203125 -1.414062 C 0.277344 -1.550781 0.378906 -1.652344 0.511719 -1.726562 C 0.640625 -1.800781 0.777344 -1.839844 0.925781 -1.839844 C 1.011719 -1.839844 1.09375 -1.828125 1.171875 -1.808594 C 1.246094 -1.789062 1.320312 -1.757812 1.386719 -1.714844 Z "/>
</g>
<g id="glyph-0-3">
<path d="M 1.222656 -1.609375 L 0.527344 -1.609375 C 0.523438 -1.550781 0.507812 -1.507812 0.480469 -1.484375 C 0.457031 -1.457031 0.421875 -1.445312 0.378906 -1.445312 C 0.332031 -1.445312 0.296875 -1.460938 0.265625 -1.488281 C 0.238281 -1.519531 0.226562 -1.574219 0.226562 -1.644531 L 0.226562 -1.914062 L 1.542969 -1.914062 L 1.542969 -1.609375 L 1.050781 -0.148438 C 1.03125 -0.0898438 1.007812 -0.046875 0.980469 -0.0273438 C 0.957031 -0.0078125 0.925781 0.00390625 0.890625 0.00390625 C 0.847656 0.00390625 0.8125 -0.0117188 0.78125 -0.0429688 C 0.75 -0.0703125 0.738281 -0.105469 0.738281 -0.144531 C 0.738281 -0.164062 0.746094 -0.199219 0.761719 -0.246094 Z "/>
</g>
<g id="glyph-0-4">
<path d="M 0.230469 -0.304688 L 0.230469 -1.488281 C 0.167969 -1.492188 0.121094 -1.503906 0.0898438 -1.535156 C 0.0585938 -1.5625 0.0429688 -1.597656 0.0429688 -1.640625 C 0.0429688 -1.6875 0.0585938 -1.722656 0.0898438 -1.753906 C 0.121094 -1.78125 0.171875 -1.792969 0.246094 -1.792969 L 0.878906 -1.792969 C 0.980469 -1.792969 1.074219 -1.773438 1.167969 -1.738281 C 1.265625 -1.703125 1.339844 -1.65625 1.398438 -1.597656 C 1.441406 -1.558594 1.484375 -1.5 1.53125 -1.425781 C 1.578125 -1.351562 1.613281 -1.277344 1.636719 -1.203125 C 1.660156 -1.132812 1.671875 -1.042969 1.671875 -0.9375 L 1.671875 -0.792969 C 1.671875 -0.664062 1.652344 -0.550781 1.609375 -0.449219 C 1.566406 -0.351562 1.507812 -0.269531 1.4375 -0.207031 C 1.367188 -0.144531 1.300781 -0.0976562 1.238281 -0.0703125 C 1.140625 -0.0234375 1.011719 0 0.855469 0 L 0.246094 0 C 0.171875 0 0.121094 -0.015625 0.0898438 -0.0429688 C 0.0585938 -0.0703125 0.0429688 -0.105469 0.0429688 -0.152344 C 0.0429688 -0.195312 0.0585938 -0.234375 0.0898438 -0.261719 C 0.121094 -0.289062 0.167969 -0.304688 0.230469 -0.304688 M 0.535156 -0.304688 L 0.855469 -0.304688 C 0.976562 -0.304688 1.066406 -0.320312 1.128906 -0.355469 C 1.207031 -0.402344 1.269531 -0.457031 1.308594 -0.527344 C 1.351562 -0.597656 1.371094 -0.6875 1.371094 -0.800781 L 1.371094 -0.945312 C 1.371094 -1.039062 1.351562 -1.125 1.316406 -1.195312 C 1.257812 -1.308594 1.195312 -1.386719 1.121094 -1.425781 C 1.050781 -1.46875 0.960938 -1.488281 0.855469 -1.488281 L 0.535156 -1.488281 Z "/>
</g>
<g id="glyph-0-5">
<path d="M 0.652344 -1.609375 L 0.652344 -1.25 C 0.765625 -1.285156 0.867188 -1.304688 0.960938 -1.304688 C 1.148438 -1.304688 1.300781 -1.238281 1.425781 -1.113281 C 1.546875 -0.984375 1.609375 -0.820312 1.609375 -0.621094 C 1.609375 -0.414062 1.546875 -0.25 1.421875 -0.132812 C 1.296875 -0.015625 1.105469 0.0429688 0.847656 0.0429688 C 0.621094 0.0429688 0.441406 0 0.3125 -0.0859375 C 0.234375 -0.132812 0.195312 -0.191406 0.195312 -0.253906 C 0.195312 -0.296875 0.210938 -0.332031 0.242188 -0.359375 C 0.269531 -0.390625 0.304688 -0.40625 0.347656 -0.40625 C 0.382812 -0.40625 0.417969 -0.390625 0.460938 -0.355469 C 0.5 -0.324219 0.542969 -0.300781 0.585938 -0.285156 C 0.652344 -0.269531 0.730469 -0.257812 0.828125 -0.257812 C 1.011719 -0.257812 1.140625 -0.289062 1.207031 -0.347656 C 1.273438 -0.40625 1.304688 -0.496094 1.304688 -0.617188 C 1.304688 -0.738281 1.273438 -0.828125 1.210938 -0.898438 C 1.144531 -0.964844 1.0625 -1 0.960938 -1 C 0.851562 -1 0.726562 -0.964844 0.585938 -0.894531 C 0.554688 -0.875 0.527344 -0.867188 0.503906 -0.867188 C 0.460938 -0.867188 0.421875 -0.882812 0.394531 -0.914062 C 0.363281 -0.949219 0.351562 -0.988281 0.351562 -1.039062 L 0.351562 -1.914062 L 1.277344 -1.914062 C 1.351562 -1.914062 1.402344 -1.902344 1.433594 -1.871094 C 1.464844 -1.84375 1.480469 -1.808594 1.480469 -1.761719 C 1.480469 -1.71875 1.464844 -1.679688 1.433594 -1.652344 C 1.402344 -1.625 1.351562 -1.609375 1.277344 -1.609375 Z "/>
</g>
<g id="glyph-0-6">
<path d="M 1.34375 -1.011719 C 1.433594 -0.953125 1.5 -0.882812 1.542969 -0.800781 C 1.585938 -0.722656 1.609375 -0.628906 1.609375 -0.53125 C 1.609375 -0.421875 1.582031 -0.324219 1.523438 -0.234375 C 1.464844 -0.140625 1.378906 -0.0742188 1.265625 -0.0273438 C 1.15625 0.0195312 1.007812 0.0429688 0.828125 0.0429688 C 0.59375 0.0429688 0.417969 0.0078125 0.300781 -0.0664062 C 0.234375 -0.105469 0.199219 -0.15625 0.199219 -0.214844 C 0.199219 -0.257812 0.214844 -0.292969 0.242188 -0.324219 C 0.273438 -0.351562 0.308594 -0.367188 0.347656 -0.367188 C 0.378906 -0.367188 0.40625 -0.359375 0.4375 -0.339844 C 0.480469 -0.308594 0.523438 -0.289062 0.5625 -0.28125 C 0.621094 -0.265625 0.703125 -0.257812 0.804688 -0.257812 C 0.980469 -0.257812 1.109375 -0.28125 1.1875 -0.328125 C 1.265625 -0.375 1.304688 -0.4375 1.304688 -0.523438 C 1.304688 -0.585938 1.285156 -0.644531 1.238281 -0.703125 C 1.191406 -0.761719 1.128906 -0.804688 1.054688 -0.835938 C 1.007812 -0.855469 0.933594 -0.867188 0.828125 -0.871094 C 0.777344 -0.875 0.738281 -0.890625 0.710938 -0.917969 C 0.683594 -0.949219 0.671875 -0.984375 0.671875 -1.023438 C 0.671875 -1.066406 0.6875 -1.105469 0.714844 -1.132812 C 0.746094 -1.164062 0.785156 -1.179688 0.828125 -1.179688 C 0.929688 -1.179688 0.984375 -1.179688 0.988281 -1.179688 C 1.03125 -1.183594 1.070312 -1.195312 1.109375 -1.21875 C 1.148438 -1.238281 1.179688 -1.269531 1.203125 -1.308594 C 1.226562 -1.34375 1.238281 -1.382812 1.238281 -1.425781 C 1.238281 -1.488281 1.210938 -1.542969 1.15625 -1.589844 C 1.097656 -1.636719 1.011719 -1.660156 0.898438 -1.660156 C 0.753906 -1.660156 0.640625 -1.621094 0.566406 -1.535156 C 0.542969 -1.507812 0.523438 -1.492188 0.511719 -1.488281 C 0.488281 -1.476562 0.464844 -1.472656 0.441406 -1.472656 C 0.398438 -1.472656 0.363281 -1.484375 0.335938 -1.515625 C 0.304688 -1.542969 0.289062 -1.582031 0.289062 -1.625 C 0.289062 -1.691406 0.335938 -1.757812 0.425781 -1.824219 C 0.558594 -1.917969 0.722656 -1.964844 0.921875 -1.964844 C 1.109375 -1.964844 1.257812 -1.910156 1.375 -1.804688 C 1.488281 -1.695312 1.542969 -1.570312 1.542969 -1.417969 C 1.542969 -1.339844 1.527344 -1.269531 1.492188 -1.199219 C 1.460938 -1.132812 1.410156 -1.070312 1.34375 -1.011719 Z "/>
</g>
<g id="glyph-0-7">
<path d="M 1.335938 -0.796875 C 1.261719 -0.730469 1.191406 -0.683594 1.128906 -0.65625 C 1.0625 -0.628906 0.996094 -0.617188 0.925781 -0.617188 C 0.765625 -0.617188 0.621094 -0.683594 0.5 -0.8125 C 0.378906 -0.941406 0.316406 -1.105469 0.316406 -1.296875 C 0.316406 -1.449219 0.359375 -1.585938 0.445312 -1.707031 C 0.558594 -1.878906 0.71875 -1.964844 0.925781 -1.964844 C 1.078125 -1.964844 1.207031 -1.917969 1.316406 -1.828125 C 1.429688 -1.742188 1.511719 -1.613281 1.5625 -1.445312 C 1.617188 -1.273438 1.640625 -1.101562 1.640625 -0.917969 C 1.640625 -0.609375 1.523438 -0.359375 1.28125 -0.171875 C 1.097656 -0.0273438 0.894531 0.0429688 0.671875 0.0429688 C 0.550781 0.0429688 0.457031 0.0195312 0.390625 -0.03125 C 0.34375 -0.0625 0.320312 -0.105469 0.320312 -0.160156 C 0.320312 -0.203125 0.335938 -0.238281 0.363281 -0.265625 C 0.394531 -0.296875 0.429688 -0.3125 0.472656 -0.3125 C 0.496094 -0.3125 0.523438 -0.304688 0.550781 -0.289062 C 0.589844 -0.269531 0.628906 -0.257812 0.671875 -0.257812 C 0.824219 -0.257812 0.96875 -0.3125 1.097656 -0.414062 C 1.226562 -0.519531 1.304688 -0.644531 1.335938 -0.796875 M 1.292969 -1.273438 C 1.261719 -1.414062 1.210938 -1.511719 1.148438 -1.570312 C 1.085938 -1.628906 1.011719 -1.660156 0.929688 -1.660156 C 0.84375 -1.660156 0.773438 -1.628906 0.710938 -1.5625 C 0.652344 -1.496094 0.621094 -1.410156 0.621094 -1.300781 C 0.621094 -1.1875 0.652344 -1.09375 0.710938 -1.023438 C 0.773438 -0.957031 0.84375 -0.921875 0.921875 -0.921875 C 1.058594 -0.921875 1.183594 -1.039062 1.292969 -1.273438 Z "/>
</g>
<g id="glyph-0-8">
<path d="M 1.28125 -0.488281 L 0.542969 -0.488281 L 0.46875 -0.304688 L 0.542969 -0.304688 C 0.617188 -0.304688 0.667969 -0.289062 0.699219 -0.261719 C 0.730469 -0.234375 0.746094 -0.195312 0.746094 -0.152344 C 0.746094 -0.105469 0.730469 -0.0703125 0.699219 -0.0429688 C 0.667969 -0.015625 0.617188 0 0.542969 0 L 0.132812 0 C 0.0625 0 0.0078125 -0.015625 -0.0195312 -0.0429688 C -0.0507812 -0.0703125 -0.0664062 -0.105469 -0.0664062 -0.152344 C -0.0664062 -0.199219 -0.0507812 -0.234375 -0.0195312 -0.261719 C 0.0117188 -0.292969 0.0664062 -0.304688 0.140625 -0.304688 L 0.617188 -1.488281 L 0.421875 -1.488281 C 0.347656 -1.488281 0.296875 -1.503906 0.265625 -1.53125 C 0.234375 -1.558594 0.21875 -1.597656 0.21875 -1.640625 C 0.21875 -1.6875 0.234375 -1.722656 0.265625 -1.753906 C 0.296875 -1.78125 0.347656 -1.792969 0.421875 -1.792969 L 1.074219 -1.792969 L 1.679688 -0.304688 C 1.75 -0.304688 1.796875 -0.296875 1.820312 -0.28125 C 1.867188 -0.246094 1.886719 -0.203125 1.886719 -0.152344 C 1.886719 -0.105469 1.871094 -0.0703125 1.84375 -0.0429688 C 1.8125 -0.015625 1.761719 0 1.6875 0 L 1.277344 0 C 1.207031 0 1.152344 -0.015625 1.121094 -0.0429688 C 1.089844 -0.0703125 1.074219 -0.105469 1.074219 -0.152344 C 1.074219 -0.195312 1.089844 -0.234375 1.121094 -0.261719 C 1.152344 -0.289062 1.207031 -0.304688 1.277344 -0.304688 L 1.351562 -0.304688 L 1.28125 -0.488281 M 1.152344 -0.792969 L 0.910156 -1.390625 L 0.664062 -0.792969 Z "/>
</g>
<g id="glyph-0-9">
<path d="M 1.570312 -1.125 L 1.570312 -0.792969 C 1.570312 -0.597656 1.515625 -0.40625 1.402344 -0.226562 C 1.285156 -0.046875 1.125 0.0429688 0.910156 0.0429688 C 0.789062 0.0429688 0.6875 0.015625 0.601562 -0.0351562 C 0.515625 -0.0898438 0.4375 -0.1875 0.363281 -0.332031 C 0.285156 -0.476562 0.25 -0.632812 0.25 -0.792969 L 0.25 -1.125 C 0.25 -1.324219 0.304688 -1.511719 0.417969 -1.691406 C 0.53125 -1.871094 0.695312 -1.964844 0.90625 -1.964844 C 1.027344 -1.964844 1.132812 -1.9375 1.214844 -1.882812 C 1.300781 -1.832031 1.378906 -1.730469 1.457031 -1.585938 C 1.53125 -1.441406 1.570312 -1.289062 1.570312 -1.125 M 1.265625 -1.125 C 1.265625 -1.289062 1.21875 -1.433594 1.128906 -1.558594 C 1.078125 -1.625 1.003906 -1.660156 0.910156 -1.660156 C 0.816406 -1.660156 0.742188 -1.621094 0.683594 -1.546875 C 0.597656 -1.433594 0.550781 -1.292969 0.550781 -1.125 L 0.550781 -0.792969 C 0.550781 -0.628906 0.597656 -0.484375 0.691406 -0.359375 C 0.742188 -0.292969 0.816406 -0.257812 0.910156 -0.257812 C 1.003906 -0.257812 1.078125 -0.296875 1.136719 -0.371094 C 1.222656 -0.484375 1.265625 -0.625 1.265625 -0.792969 Z "/>
</g>
<g id="glyph-1-0">
<path d="M 5.214844 -4.359375 C 5.144531 -4.351562 5.074219 -4.339844 5.007812 -4.320312 C 4.945312 -4.300781 4.878906 -4.269531 4.808594 -4.226562 C 4.714844 -4.175781 4.640625 -4.117188 4.589844 -4.054688 C 4.539062 -3.992188 4.488281 -3.90625 4.441406 -3.796875 C 4.371094 -3.648438 4.277344 -3.429688 4.15625 -3.144531 C 4.035156 -2.855469 3.894531 -2.527344 3.738281 -2.160156 C 3.601562 -1.832031 3.449219 -1.46875 3.289062 -1.078125 C 3.128906 -0.683594 2.972656 -0.308594 2.824219 0.0507812 L 2.171875 0.0507812 C 1.867188 -0.691406 1.558594 -1.449219 1.242188 -2.21875 C 0.929688 -2.984375 0.707031 -3.519531 0.578125 -3.816406 C 0.53125 -3.925781 0.480469 -4.007812 0.433594 -4.0625 C 0.386719 -4.121094 0.3125 -4.175781 0.210938 -4.234375 C 0.136719 -4.277344 0.0742188 -4.304688 0.015625 -4.320312 C -0.0390625 -4.335938 -0.113281 -4.351562 -0.207031 -4.367188 L -0.207031 -4.617188 L 2.296875 -4.617188 L 2.296875 -4.371094 C 2.0625 -4.34375 1.902344 -4.3125 1.820312 -4.28125 C 1.734375 -4.25 1.691406 -4.210938 1.691406 -4.164062 C 1.691406 -4.140625 1.695312 -4.113281 1.703125 -4.085938 C 1.710938 -4.058594 1.722656 -4.023438 1.738281 -3.976562 C 1.808594 -3.785156 1.933594 -3.476562 2.117188 -3.042969 C 2.296875 -2.609375 2.570312 -1.949219 2.925781 -1.0625 C 3.144531 -1.605469 3.328125 -2.058594 3.472656 -2.433594 C 3.617188 -2.804688 3.746094 -3.136719 3.855469 -3.421875 C 3.910156 -3.558594 3.957031 -3.691406 3.992188 -3.808594 C 4.027344 -3.929688 4.046875 -4.019531 4.046875 -4.082031 C 4.046875 -4.152344 3.996094 -4.210938 3.894531 -4.257812 C 3.796875 -4.304688 3.613281 -4.335938 3.34375 -4.359375 L 3.34375 -4.617188 L 5.214844 -4.617188 Z "/>
</g>
<g id="glyph-1-1">
<path d="M 2.246094 0 L 0.1875 0 L 0.1875 -0.238281 C 0.246094 -0.242188 0.300781 -0.246094 0.355469 -0.253906 C 0.410156 -0.261719 0.457031 -0.269531 0.496094 -0.285156 C 0.5625 -0.3125 0.613281 -0.351562 0.640625 -0.398438 C 0.667969 -0.449219 0.683594 -0.511719 0.683594 -0.59375 L 0.683594 -2.488281 C 0.683594 -2.5625 0.667969 -2.628906 0.632812 -2.6875 C 0.597656 -2.746094 0.554688 -2.789062 0.5 -2.824219 C 0.460938 -2.851562 0.402344 -2.875 0.324219 -2.898438 C 0.246094 -2.925781 0.171875 -2.9375 0.105469 -2.945312 L 0.105469 -3.183594 L 1.703125 -3.269531 L 1.75 -3.21875 L 1.75 -0.632812 C 1.75 -0.558594 1.765625 -0.496094 1.800781 -0.441406 C 1.832031 -0.386719 1.878906 -0.347656 1.941406 -0.320312 C 1.984375 -0.304688 2.03125 -0.285156 2.082031 -0.269531 C 2.136719 -0.253906 2.191406 -0.242188 2.246094 -0.238281 L 2.246094 0 M 1.769531 -4.441406 C 1.769531 -4.273438 1.707031 -4.132812 1.582031 -4.019531 C 1.453125 -3.902344 1.304688 -3.84375 1.128906 -3.84375 C 0.953125 -3.84375 0.800781 -3.902344 0.675781 -4.019531 C 0.546875 -4.132812 0.484375 -4.273438 0.484375 -4.441406 C 0.484375 -4.605469 0.546875 -4.746094 0.675781 -4.863281 C 0.800781 -4.980469 0.953125 -5.039062 1.128906 -5.039062 C 1.304688 -5.039062 1.457031 -4.980469 1.582031 -4.863281 C 1.707031 -4.746094 1.769531 -4.605469 1.769531 -4.441406 Z "/>
</g>
<g id="glyph-1-2">
<path d="M 2.046875 0.105469 C 1.746094 0.105469 1.480469 0.0585938 1.25 -0.0273438 C 1.015625 -0.117188 0.828125 -0.234375 0.675781 -0.386719 C 0.527344 -0.542969 0.414062 -0.722656 0.339844 -0.933594 C 0.269531 -1.144531 0.230469 -1.375 0.230469 -1.621094 C 0.230469 -1.847656 0.277344 -2.0625 0.367188 -2.265625 C 0.457031 -2.46875 0.578125 -2.648438 0.730469 -2.800781 C 0.890625 -2.960938 1.085938 -3.085938 1.324219 -3.183594 C 1.558594 -3.277344 1.820312 -3.324219 2.101562 -3.324219 C 2.503906 -3.324219 2.816406 -3.25 3.050781 -3.097656 C 3.28125 -2.945312 3.398438 -2.742188 3.398438 -2.488281 C 3.398438 -2.332031 3.355469 -2.203125 3.273438 -2.109375 C 3.191406 -2.015625 3.050781 -1.964844 2.847656 -1.964844 C 2.683594 -1.964844 2.550781 -2.003906 2.441406 -2.082031 C 2.332031 -2.160156 2.273438 -2.261719 2.273438 -2.390625 C 2.273438 -2.496094 2.292969 -2.601562 2.328125 -2.703125 C 2.363281 -2.808594 2.382812 -2.886719 2.390625 -2.941406 C 2.367188 -2.980469 2.335938 -3.011719 2.296875 -3.03125 C 2.261719 -3.054688 2.203125 -3.0625 2.125 -3.0625 C 2.027344 -3.0625 1.9375 -3.039062 1.859375 -2.996094 C 1.777344 -2.949219 1.703125 -2.867188 1.632812 -2.753906 C 1.566406 -2.644531 1.511719 -2.5 1.472656 -2.316406 C 1.433594 -2.136719 1.414062 -1.917969 1.414062 -1.660156 C 1.414062 -1.273438 1.503906 -0.960938 1.683594 -0.726562 C 1.867188 -0.488281 2.082031 -0.371094 2.335938 -0.371094 C 2.574219 -0.371094 2.765625 -0.425781 2.910156 -0.53125 C 3.050781 -0.640625 3.175781 -0.792969 3.289062 -0.988281 L 3.53125 -0.820312 C 3.464844 -0.6875 3.382812 -0.566406 3.289062 -0.457031 C 3.199219 -0.347656 3.085938 -0.25 2.957031 -0.164062 C 2.820312 -0.078125 2.679688 -0.0078125 2.539062 0.0351562 C 2.398438 0.0820312 2.234375 0.105469 2.046875 0.105469 Z "/>
</g>
<g id="glyph-1-3">
</g>
<g id="glyph-1-4">
<path d="M 4.421875 0 L 2.464844 0 L 2.464844 -0.238281 C 2.507812 -0.242188 2.558594 -0.246094 2.617188 -0.253906 C 2.675781 -0.261719 2.71875 -0.269531 2.746094 -0.285156 C 2.792969 -0.308594 2.824219 -0.34375 2.84375 -0.390625 C 2.863281 -0.4375 2.871094 -0.503906 2.871094 -0.59375 L 2.871094 -2.117188 C 2.871094 -2.339844 2.828125 -2.507812 2.746094 -2.617188 C 2.664062 -2.726562 2.542969 -2.78125 2.390625 -2.78125 C 2.300781 -2.78125 2.222656 -2.769531 2.148438 -2.742188 C 2.070312 -2.71875 2 -2.679688 1.925781 -2.628906 C 1.863281 -2.585938 1.8125 -2.542969 1.777344 -2.496094 C 1.738281 -2.453125 1.707031 -2.410156 1.679688 -2.375 L 1.679688 -0.628906 C 1.679688 -0.546875 1.6875 -0.484375 1.707031 -0.4375 C 1.726562 -0.390625 1.765625 -0.351562 1.820312 -0.320312 C 1.851562 -0.304688 1.894531 -0.285156 1.949219 -0.269531 C 2 -0.253906 2.054688 -0.242188 2.101562 -0.238281 L 2.101562 0 L 0.117188 0 L 0.117188 -0.238281 C 0.175781 -0.242188 0.230469 -0.246094 0.28125 -0.253906 C 0.335938 -0.261719 0.382812 -0.269531 0.425781 -0.285156 C 0.496094 -0.3125 0.542969 -0.351562 0.566406 -0.398438 C 0.59375 -0.449219 0.605469 -0.511719 0.605469 -0.59375 L 0.605469 -4.222656 C 0.605469 -4.292969 0.589844 -4.367188 0.554688 -4.445312 C 0.523438 -4.523438 0.476562 -4.578125 0.417969 -4.617188 C 0.375 -4.648438 0.3125 -4.667969 0.230469 -4.6875 C 0.148438 -4.703125 0.0742188 -4.710938 0.0078125 -4.71875 L 0.0078125 -4.953125 L 1.628906 -5.039062 L 1.679688 -4.988281 L 1.679688 -2.746094 L 1.691406 -2.746094 C 1.773438 -2.820312 1.847656 -2.886719 1.914062 -2.949219 C 1.980469 -3.007812 2.0625 -3.066406 2.15625 -3.128906 C 2.238281 -3.179688 2.34375 -3.226562 2.472656 -3.261719 C 2.601562 -3.296875 2.738281 -3.316406 2.890625 -3.316406 C 3.238281 -3.316406 3.503906 -3.214844 3.679688 -3.015625 C 3.855469 -2.8125 3.945312 -2.546875 3.945312 -2.21875 L 3.945312 -0.621094 C 3.945312 -0.542969 3.957031 -0.476562 3.980469 -0.429688 C 4.003906 -0.382812 4.050781 -0.34375 4.113281 -0.316406 C 4.152344 -0.296875 4.195312 -0.28125 4.246094 -0.269531 C 4.292969 -0.257812 4.351562 -0.246094 4.421875 -0.238281 Z "/>
</g>
<g id="glyph-1-5">
<path d="M 4.484375 0 L 2.527344 0 L 2.527344 -0.238281 C 2.570312 -0.242188 2.621094 -0.246094 2.679688 -0.253906 C 2.738281 -0.261719 2.78125 -0.269531 2.8125 -0.285156 C 2.859375 -0.308594 2.890625 -0.34375 2.910156 -0.390625 C 2.929688 -0.4375 2.9375 -0.503906 2.9375 -0.59375 L 2.9375 -2.117188 C 2.9375 -2.335938 2.898438 -2.503906 2.816406 -2.617188 C 2.734375 -2.726562 2.613281 -2.78125 2.457031 -2.78125 C 2.371094 -2.78125 2.289062 -2.769531 2.214844 -2.742188 C 2.136719 -2.71875 2.066406 -2.679688 1.992188 -2.628906 C 1.929688 -2.585938 1.878906 -2.542969 1.839844 -2.496094 C 1.804688 -2.453125 1.769531 -2.410156 1.746094 -2.375 L 1.746094 -0.628906 C 1.746094 -0.550781 1.753906 -0.488281 1.777344 -0.4375 C 1.800781 -0.386719 1.835938 -0.347656 1.882812 -0.320312 C 1.917969 -0.304688 1.960938 -0.285156 2.015625 -0.269531 C 2.066406 -0.253906 2.117188 -0.242188 2.167969 -0.238281 L 2.167969 0 L 0.1875 0 L 0.1875 -0.238281 C 0.242188 -0.242188 0.296875 -0.246094 0.351562 -0.253906 C 0.410156 -0.261719 0.457031 -0.273438 0.496094 -0.285156 C 0.5625 -0.308594 0.613281 -0.347656 0.636719 -0.398438 C 0.664062 -0.445312 0.675781 -0.511719 0.675781 -0.59375 L 0.675781 -2.488281 C 0.675781 -2.554688 0.660156 -2.621094 0.625 -2.683594 C 0.589844 -2.75 0.542969 -2.804688 0.488281 -2.84375 C 0.449219 -2.871094 0.398438 -2.894531 0.339844 -2.910156 C 0.28125 -2.925781 0.214844 -2.9375 0.144531 -2.945312 L 0.144531 -3.183594 L 1.695312 -3.269531 L 1.746094 -3.21875 L 1.746094 -2.746094 L 1.757812 -2.746094 C 1.820312 -2.800781 1.890625 -2.867188 1.980469 -2.941406 C 2.066406 -3.019531 2.144531 -3.082031 2.21875 -3.128906 C 2.300781 -3.179688 2.40625 -3.226562 2.535156 -3.261719 C 2.664062 -3.296875 2.804688 -3.316406 2.953125 -3.316406 C 3.304688 -3.316406 3.570312 -3.214844 3.75 -3.015625 C 3.925781 -2.816406 4.015625 -2.546875 4.015625 -2.21875 L 4.015625 -0.621094 C 4.015625 -0.542969 4.027344 -0.476562 4.050781 -0.429688 C 4.074219 -0.382812 4.117188 -0.34375 4.183594 -0.316406 C 4.21875 -0.300781 4.261719 -0.285156 4.3125 -0.269531 C 4.363281 -0.253906 4.421875 -0.242188 4.484375 -0.238281 Z "/>
</g>
<g id="glyph-1-6">
<path d="M 2.609375 -0.148438 C 2.472656 -0.0898438 2.324219 -0.0351562 2.164062 0.015625 C 2.007812 0.0625 1.8125 0.0859375 1.585938 0.0859375 C 1.246094 0.0859375 0.996094 0.00390625 0.832031 -0.160156 C 0.667969 -0.324219 0.585938 -0.558594 0.585938 -0.863281 L 0.585938 -2.859375 L 0 -2.859375 L 0 -3.214844 L 0.597656 -3.214844 L 0.597656 -4.203125 L 1.652344 -4.203125 L 1.652344 -3.214844 L 2.566406 -3.214844 L 2.566406 -2.859375 L 1.660156 -2.859375 L 1.660156 -1.078125 C 1.660156 -0.828125 1.695312 -0.644531 1.765625 -0.539062 C 1.835938 -0.433594 1.964844 -0.378906 2.148438 -0.378906 C 2.207031 -0.378906 2.289062 -0.386719 2.390625 -0.394531 C 2.496094 -0.402344 2.570312 -0.414062 2.609375 -0.421875 Z "/>
</g>
<g id="glyph-1-7">
<path d="M 3.429688 -2.632812 C 3.429688 -2.46875 3.378906 -2.324219 3.277344 -2.199219 C 3.175781 -2.074219 3.042969 -2.011719 2.875 -2.011719 C 2.714844 -2.011719 2.582031 -2.050781 2.472656 -2.132812 C 2.363281 -2.210938 2.308594 -2.328125 2.308594 -2.484375 C 2.308594 -2.5625 2.3125 -2.621094 2.324219 -2.660156 C 2.335938 -2.703125 2.34375 -2.742188 2.351562 -2.78125 C 2.253906 -2.777344 2.148438 -2.742188 2.039062 -2.675781 C 1.925781 -2.613281 1.828125 -2.527344 1.746094 -2.417969 L 1.746094 -0.632812 C 1.746094 -0.554688 1.757812 -0.492188 1.78125 -0.441406 C 1.804688 -0.394531 1.84375 -0.355469 1.902344 -0.324219 C 1.949219 -0.300781 2.027344 -0.28125 2.132812 -0.265625 C 2.242188 -0.25 2.320312 -0.238281 2.367188 -0.238281 L 2.367188 0 L 0.1875 0 L 0.1875 -0.238281 C 0.242188 -0.242188 0.296875 -0.246094 0.351562 -0.253906 C 0.410156 -0.261719 0.457031 -0.273438 0.496094 -0.285156 C 0.5625 -0.308594 0.613281 -0.347656 0.636719 -0.398438 C 0.664062 -0.445312 0.675781 -0.511719 0.675781 -0.59375 L 0.675781 -2.488281 C 0.675781 -2.566406 0.660156 -2.636719 0.621094 -2.695312 C 0.585938 -2.757812 0.539062 -2.808594 0.488281 -2.84375 C 0.449219 -2.871094 0.398438 -2.894531 0.339844 -2.910156 C 0.28125 -2.925781 0.214844 -2.9375 0.144531 -2.945312 L 0.144531 -3.183594 L 1.695312 -3.269531 L 1.746094 -3.21875 L 1.746094 -2.746094 L 1.757812 -2.746094 C 1.90625 -2.921875 2.066406 -3.058594 2.234375 -3.15625 C 2.402344 -3.253906 2.578125 -3.304688 2.761719 -3.304688 C 2.960938 -3.304688 3.125 -3.242188 3.246094 -3.117188 C 3.371094 -2.992188 3.429688 -2.832031 3.429688 -2.632812 Z "/>
</g>
<g id="glyph-1-8">
<path d="M 4.152344 -1.585938 C 4.152344 -1.128906 4 -0.734375 3.695312 -0.40625 C 3.390625 -0.078125 3.003906 0.0859375 2.535156 0.0859375 C 2.328125 0.0859375 2.15625 0.0625 2.027344 0.0195312 C 1.898438 -0.0195312 1.789062 -0.0742188 1.707031 -0.132812 L 1.679688 -0.132812 L 1.679688 0.78125 C 1.679688 0.855469 1.695312 0.921875 1.730469 0.980469 C 1.765625 1.035156 1.8125 1.078125 1.871094 1.101562 C 1.929688 1.128906 2.011719 1.148438 2.121094 1.167969 C 2.226562 1.1875 2.316406 1.199219 2.390625 1.203125 L 2.390625 1.445312 L 0.0351562 1.445312 L 0.0351562 1.203125 C 0.0898438 1.199219 0.160156 1.191406 0.242188 1.179688 C 0.324219 1.167969 0.386719 1.15625 0.425781 1.140625 C 0.496094 1.117188 0.542969 1.078125 0.566406 1.019531 C 0.59375 0.964844 0.605469 0.898438 0.605469 0.824219 L 0.605469 -2.507812 C 0.597656 -2.578125 0.582031 -2.640625 0.554688 -2.695312 C 0.527344 -2.75 0.484375 -2.796875 0.425781 -2.839844 C 0.382812 -2.867188 0.324219 -2.890625 0.253906 -2.910156 C 0.183594 -2.925781 0.113281 -2.9375 0.0429688 -2.945312 L 0.0429688 -3.183594 L 1.628906 -3.269531 L 1.679688 -3.226562 L 1.679688 -2.863281 L 1.707031 -2.859375 C 1.847656 -3.003906 2.007812 -3.117188 2.183594 -3.195312 C 2.355469 -3.277344 2.527344 -3.316406 2.699219 -3.316406 C 3.148438 -3.316406 3.503906 -3.15625 3.761719 -2.839844 C 4.023438 -2.523438 4.152344 -2.105469 4.152344 -1.585938 M 2.984375 -1.570312 C 2.984375 -1.734375 2.972656 -1.890625 2.949219 -2.039062 C 2.925781 -2.1875 2.882812 -2.320312 2.824219 -2.4375 C 2.765625 -2.554688 2.6875 -2.648438 2.589844 -2.71875 C 2.496094 -2.789062 2.375 -2.820312 2.238281 -2.820312 C 2.097656 -2.820312 1.984375 -2.796875 1.902344 -2.75 C 1.816406 -2.699219 1.742188 -2.636719 1.679688 -2.558594 L 1.679688 -0.710938 C 1.691406 -0.667969 1.71875 -0.613281 1.753906 -0.546875 C 1.792969 -0.476562 1.828125 -0.421875 1.863281 -0.378906 C 1.917969 -0.320312 1.980469 -0.277344 2.050781 -0.25 C 2.117188 -0.222656 2.195312 -0.207031 2.277344 -0.207031 C 2.492188 -0.207031 2.664062 -0.324219 2.792969 -0.554688 C 2.921875 -0.785156 2.984375 -1.125 2.984375 -1.570312 Z "/>
</g>
<g id="glyph-1-9">
<path d="M 4.433594 -0.0703125 L 2.878906 0.0273438 L 2.832031 -0.0195312 L 2.832031 -0.445312 L 2.8125 -0.445312 C 2.738281 -0.378906 2.667969 -0.3125 2.597656 -0.25 C 2.527344 -0.183594 2.441406 -0.125 2.34375 -0.0742188 C 2.234375 -0.015625 2.128906 0.0273438 2.03125 0.0546875 C 1.933594 0.0820312 1.789062 0.0976562 1.601562 0.0976562 C 1.273438 0.0976562 1.023438 0 0.847656 -0.199219 C 0.671875 -0.394531 0.585938 -0.675781 0.585938 -1.035156 L 0.585938 -2.5 C 0.585938 -2.585938 0.570312 -2.652344 0.539062 -2.707031 C 0.503906 -2.761719 0.460938 -2.808594 0.40625 -2.847656 C 0.363281 -2.878906 0.308594 -2.902344 0.238281 -2.917969 C 0.171875 -2.933594 0.109375 -2.941406 0.0507812 -2.945312 L 0.0507812 -3.183594 L 1.625 -3.269531 L 1.660156 -3.21875 L 1.660156 -1.054688 C 1.660156 -0.832031 1.703125 -0.667969 1.789062 -0.558594 C 1.875 -0.453125 1.992188 -0.398438 2.140625 -0.398438 C 2.296875 -0.398438 2.433594 -0.441406 2.558594 -0.519531 C 2.679688 -0.601562 2.769531 -0.6875 2.824219 -0.777344 L 2.824219 -2.53125 C 2.824219 -2.605469 2.8125 -2.671875 2.78125 -2.730469 C 2.753906 -2.789062 2.714844 -2.835938 2.660156 -2.875 C 2.621094 -2.898438 2.566406 -2.917969 2.492188 -2.925781 C 2.417969 -2.933594 2.34375 -2.941406 2.269531 -2.945312 L 2.269531 -3.183594 L 3.851562 -3.269531 L 3.898438 -3.21875 L 3.898438 -0.707031 C 3.898438 -0.628906 3.914062 -0.566406 3.945312 -0.511719 C 3.976562 -0.460938 4.019531 -0.414062 4.078125 -0.378906 C 4.117188 -0.351562 4.171875 -0.332031 4.238281 -0.324219 C 4.304688 -0.3125 4.367188 -0.308594 4.433594 -0.304688 L 4.433594 -0.0703125 M 2.953125 -3.707031 L 2.816406 -3.582031 C 2.457031 -3.800781 2.183594 -3.957031 2 -4.054688 C 1.816406 -4.152344 1.660156 -4.242188 1.53125 -4.332031 C 1.429688 -4.402344 1.355469 -4.464844 1.3125 -4.515625 C 1.269531 -4.570312 1.25 -4.648438 1.25 -4.753906 C 1.25 -4.832031 1.292969 -4.898438 1.375 -4.953125 C 1.457031 -5.011719 1.550781 -5.039062 1.65625 -5.039062 C 1.789062 -5.039062 1.894531 -5.019531 1.972656 -4.980469 C 2.050781 -4.9375 2.140625 -4.847656 2.238281 -4.699219 C 2.3125 -4.597656 2.410156 -4.457031 2.53125 -4.285156 C 2.652344 -4.113281 2.792969 -3.921875 2.953125 -3.707031 Z "/>
</g>
<g id="glyph-1-10">
<path d="M 3.835938 -2.863281 L 3.117188 -2.863281 C 3.203125 -2.769531 3.265625 -2.667969 3.308594 -2.5625 C 3.351562 -2.457031 3.371094 -2.347656 3.371094 -2.234375 C 3.371094 -2.082031 3.332031 -1.941406 3.25 -1.8125 C 3.171875 -1.679688 3.066406 -1.574219 2.9375 -1.492188 C 2.804688 -1.40625 2.648438 -1.339844 2.46875 -1.292969 C 2.292969 -1.246094 2.101562 -1.21875 1.890625 -1.21875 L 1.359375 -1.21875 C 1.335938 -1.199219 1.304688 -1.167969 1.273438 -1.128906 C 1.242188 -1.085938 1.226562 -1.042969 1.226562 -1.003906 C 1.226562 -0.910156 1.265625 -0.839844 1.339844 -0.804688 C 1.417969 -0.765625 1.554688 -0.746094 1.753906 -0.742188 C 1.953125 -0.738281 2.152344 -0.730469 2.351562 -0.71875 C 2.554688 -0.707031 2.699219 -0.699219 2.785156 -0.695312 C 2.914062 -0.691406 3.035156 -0.664062 3.160156 -0.621094 C 3.285156 -0.574219 3.390625 -0.515625 3.484375 -0.445312 C 3.582031 -0.371094 3.664062 -0.273438 3.730469 -0.15625 C 3.796875 -0.0351562 3.828125 0.101562 3.828125 0.253906 C 3.828125 0.417969 3.789062 0.574219 3.710938 0.71875 C 3.628906 0.863281 3.507812 0.992188 3.347656 1.097656 C 3.175781 1.207031 2.96875 1.292969 2.730469 1.355469 C 2.488281 1.414062 2.191406 1.445312 1.839844 1.445312 C 1.269531 1.445312 0.835938 1.375 0.539062 1.238281 C 0.238281 1.097656 0.0898438 0.890625 0.0898438 0.613281 C 0.0898438 0.441406 0.171875 0.300781 0.332031 0.1875 C 0.492188 0.078125 0.742188 0.015625 1.078125 0.0078125 L 1.078125 -0.03125 C 0.878906 -0.101562 0.726562 -0.191406 0.613281 -0.300781 C 0.5 -0.414062 0.445312 -0.542969 0.445312 -0.691406 C 0.445312 -0.78125 0.46875 -0.859375 0.511719 -0.921875 C 0.558594 -0.988281 0.613281 -1.042969 0.683594 -1.089844 C 0.746094 -1.132812 0.816406 -1.167969 0.90625 -1.195312 C 0.992188 -1.226562 1.0625 -1.25 1.125 -1.265625 L 1.125 -1.300781 C 0.828125 -1.410156 0.613281 -1.542969 0.476562 -1.699219 C 0.339844 -1.855469 0.269531 -2.046875 0.269531 -2.273438 C 0.269531 -2.589844 0.417969 -2.847656 0.710938 -3.035156 C 1.003906 -3.226562 1.378906 -3.324219 1.828125 -3.324219 C 1.976562 -3.324219 2.121094 -3.3125 2.257812 -3.285156 C 2.394531 -3.261719 2.5 -3.238281 2.570312 -3.21875 L 3.835938 -3.21875 L 3.835938 -2.863281 M 2.308594 -2.246094 C 2.308594 -2.5 2.269531 -2.699219 2.1875 -2.847656 C 2.105469 -2.996094 1.980469 -3.070312 1.816406 -3.070312 C 1.730469 -3.070312 1.65625 -3.050781 1.59375 -3.007812 C 1.53125 -2.96875 1.476562 -2.910156 1.4375 -2.835938 C 1.402344 -2.761719 1.378906 -2.675781 1.363281 -2.578125 C 1.351562 -2.476562 1.34375 -2.375 1.34375 -2.273438 C 1.34375 -2.035156 1.386719 -1.839844 1.46875 -1.6875 C 1.550781 -1.539062 1.667969 -1.460938 1.820312 -1.460938 C 1.976562 -1.460938 2.097656 -1.53125 2.183594 -1.667969 C 2.265625 -1.804688 2.308594 -1.996094 2.308594 -2.246094 M 2.851562 0.492188 C 2.851562 0.417969 2.832031 0.34375 2.789062 0.273438 C 2.75 0.199219 2.65625 0.140625 2.515625 0.09375 C 2.4375 0.0820312 2.308594 0.0742188 2.128906 0.0703125 C 1.949219 0.0625 1.703125 0.0625 1.394531 0.0625 C 1.316406 0.125 1.253906 0.203125 1.203125 0.292969 C 1.152344 0.382812 1.125 0.488281 1.125 0.617188 C 1.125 0.667969 1.140625 0.730469 1.171875 0.792969 C 1.203125 0.859375 1.25 0.921875 1.316406 0.976562 C 1.390625 1.039062 1.476562 1.089844 1.566406 1.125 C 1.660156 1.160156 1.800781 1.179688 1.992188 1.179688 C 2.269531 1.179688 2.484375 1.125 2.628906 1.015625 C 2.777344 0.90625 2.851562 0.730469 2.851562 0.492188 Z "/>
</g>
<g id="glyph-1-11">
<path d="M 4.433594 -0.0703125 L 2.878906 0.0273438 L 2.832031 -0.0195312 L 2.832031 -0.445312 L 2.8125 -0.445312 C 2.738281 -0.378906 2.667969 -0.3125 2.597656 -0.25 C 2.527344 -0.183594 2.441406 -0.125 2.34375 -0.0742188 C 2.234375 -0.015625 2.128906 0.0273438 2.03125 0.0546875 C 1.933594 0.0820312 1.789062 0.0976562 1.601562 0.0976562 C 1.273438 0.0976562 1.023438 0 0.847656 -0.199219 C 0.671875 -0.394531 0.585938 -0.675781 0.585938 -1.035156 L 0.585938 -2.5 C 0.585938 -2.585938 0.570312 -2.652344 0.539062 -2.707031 C 0.503906 -2.761719 0.460938 -2.808594 0.40625 -2.847656 C 0.363281 -2.878906 0.308594 -2.902344 0.238281 -2.917969 C 0.171875 -2.933594 0.109375 -2.941406 0.0507812 -2.945312 L 0.0507812 -3.183594 L 1.625 -3.269531 L 1.660156 -3.21875 L 1.660156 -1.054688 C 1.660156 -0.832031 1.703125 -0.667969 1.789062 -0.558594 C 1.875 -0.453125 1.992188 -0.398438 2.140625 -0.398438 C 2.296875 -0.398438 2.433594 -0.441406 2.558594 -0.519531 C 2.679688 -0.601562 2.769531 -0.6875 2.824219 -0.777344 L 2.824219 -2.53125 C 2.824219 -2.605469 2.8125 -2.671875 2.78125 -2.730469 C 2.753906 -2.789062 2.714844 -2.835938 2.660156 -2.875 C 2.621094 -2.898438 2.566406 -2.917969 2.492188 -2.925781 C 2.417969 -2.933594 2.34375 -2.941406 2.269531 -2.945312 L 2.269531 -3.183594 L 3.851562 -3.269531 L 3.898438 -3.21875 L 3.898438 -0.707031 C 3.898438 -0.628906 3.914062 -0.566406 3.945312 -0.511719 C 3.976562 -0.460938 4.019531 -0.414062 4.078125 -0.378906 C 4.117188 -0.351562 4.171875 -0.332031 4.238281 -0.324219 C 4.304688 -0.3125 4.367188 -0.308594 4.433594 -0.304688 L 4.433594 -0.0703125 M 3.167969 -4.753906 C 3.167969 -4.65625 3.144531 -4.578125 3.101562 -4.515625 C 3.054688 -4.457031 2.984375 -4.394531 2.886719 -4.332031 C 2.78125 -4.261719 2.613281 -4.164062 2.382812 -4.039062 C 2.152344 -3.910156 1.890625 -3.757812 1.601562 -3.582031 L 1.464844 -3.707031 C 1.65625 -3.960938 1.804688 -4.164062 1.90625 -4.316406 C 2.011719 -4.464844 2.101562 -4.59375 2.179688 -4.699219 C 2.269531 -4.832031 2.359375 -4.921875 2.445312 -4.96875 C 2.527344 -5.015625 2.632812 -5.039062 2.761719 -5.039062 C 2.863281 -5.039062 2.957031 -5.011719 3.042969 -4.953125 C 3.125 -4.898438 3.167969 -4.832031 3.167969 -4.753906 Z "/>
</g>
<g id="glyph-1-12">
<path d="M 3.910156 -0.0703125 C 3.8125 -0.0273438 3.703125 0.0117188 3.570312 0.046875 C 3.441406 0.0820312 3.304688 0.0976562 3.160156 0.0976562 C 2.894531 0.0976562 2.695312 0.0585938 2.570312 -0.0195312 C 2.445312 -0.101562 2.359375 -0.214844 2.3125 -0.359375 L 2.296875 -0.359375 C 2.222656 -0.289062 2.148438 -0.222656 2.082031 -0.171875 C 2.011719 -0.121094 1.941406 -0.0742188 1.859375 -0.0390625 C 1.757812 0.0078125 1.660156 0.0429688 1.566406 0.0703125 C 1.472656 0.09375 1.339844 0.105469 1.171875 0.105469 C 0.917969 0.105469 0.703125 0.03125 0.523438 -0.121094 C 0.347656 -0.269531 0.257812 -0.464844 0.257812 -0.710938 C 0.257812 -0.851562 0.277344 -0.972656 0.316406 -1.070312 C 0.355469 -1.171875 0.410156 -1.257812 0.480469 -1.332031 C 0.546875 -1.402344 0.621094 -1.460938 0.707031 -1.507812 C 0.792969 -1.550781 0.886719 -1.59375 0.992188 -1.632812 C 1.1875 -1.707031 1.421875 -1.78125 1.695312 -1.855469 C 1.96875 -1.933594 2.167969 -2.003906 2.296875 -2.0625 L 2.296875 -2.375 C 2.296875 -2.429688 2.289062 -2.503906 2.28125 -2.589844 C 2.273438 -2.679688 2.253906 -2.753906 2.226562 -2.816406 C 2.195312 -2.886719 2.148438 -2.945312 2.082031 -2.992188 C 2.019531 -3.039062 1.933594 -3.0625 1.824219 -3.0625 C 1.730469 -3.0625 1.652344 -3.050781 1.585938 -3.023438 C 1.523438 -2.996094 1.472656 -2.96875 1.433594 -2.9375 C 1.4375 -2.894531 1.457031 -2.828125 1.488281 -2.742188 C 1.519531 -2.652344 1.53125 -2.566406 1.53125 -2.484375 C 1.53125 -2.445312 1.523438 -2.402344 1.503906 -2.34375 C 1.484375 -2.289062 1.457031 -2.246094 1.417969 -2.214844 C 1.367188 -2.171875 1.3125 -2.136719 1.25 -2.113281 C 1.1875 -2.089844 1.09375 -2.078125 0.964844 -2.078125 C 0.78125 -2.078125 0.644531 -2.121094 0.550781 -2.207031 C 0.457031 -2.296875 0.410156 -2.410156 0.410156 -2.550781 C 0.410156 -2.671875 0.457031 -2.78125 0.554688 -2.878906 C 0.652344 -2.976562 0.769531 -3.054688 0.90625 -3.117188 C 1.046875 -3.183594 1.203125 -3.234375 1.378906 -3.269531 C 1.558594 -3.304688 1.722656 -3.324219 1.875 -3.324219 C 2.085938 -3.324219 2.277344 -3.3125 2.453125 -3.285156 C 2.628906 -3.261719 2.789062 -3.210938 2.929688 -3.132812 C 3.0625 -3.054688 3.171875 -2.945312 3.25 -2.800781 C 3.328125 -2.65625 3.367188 -2.46875 3.367188 -2.234375 C 3.367188 -1.992188 3.363281 -1.699219 3.355469 -1.363281 C 3.34375 -1.027344 3.339844 -0.804688 3.339844 -0.699219 C 3.339844 -0.601562 3.355469 -0.523438 3.382812 -0.46875 C 3.414062 -0.414062 3.457031 -0.371094 3.519531 -0.339844 C 3.554688 -0.324219 3.613281 -0.3125 3.691406 -0.3125 C 3.773438 -0.308594 3.84375 -0.304688 3.910156 -0.304688 L 3.910156 -0.0703125 M 2.296875 -1.765625 C 2.171875 -1.722656 2.050781 -1.675781 1.933594 -1.621094 C 1.8125 -1.570312 1.714844 -1.511719 1.636719 -1.453125 C 1.558594 -1.394531 1.496094 -1.316406 1.449219 -1.222656 C 1.402344 -1.125 1.378906 -1.015625 1.378906 -0.886719 C 1.378906 -0.71875 1.417969 -0.59375 1.496094 -0.519531 C 1.574219 -0.441406 1.667969 -0.402344 1.78125 -0.402344 C 1.902344 -0.402344 2 -0.429688 2.078125 -0.476562 C 2.15625 -0.527344 2.222656 -0.585938 2.28125 -0.65625 L 2.296875 -1.765625 M 3.132812 -3.683594 L 2.957031 -3.589844 L 1.914062 -4.417969 L 0.886719 -3.589844 L 0.71875 -3.683594 C 0.9375 -4.035156 1.085938 -4.277344 1.171875 -4.414062 C 1.257812 -4.550781 1.355469 -4.691406 1.472656 -4.839844 C 1.519531 -4.90625 1.582031 -4.957031 1.648438 -4.992188 C 1.71875 -5.023438 1.808594 -5.039062 1.925781 -5.039062 C 2.046875 -5.039062 2.136719 -5.023438 2.195312 -4.992188 C 2.253906 -4.964844 2.308594 -4.917969 2.359375 -4.851562 C 2.460938 -4.730469 2.570312 -4.578125 2.6875 -4.394531 C 2.804688 -4.210938 2.953125 -3.976562 3.132812 -3.683594 Z "/>
</g>
<g id="glyph-1-13">
<path d="M 2.246094 0 L 0.1875 0 L 0.1875 -0.238281 C 0.246094 -0.242188 0.300781 -0.246094 0.355469 -0.253906 C 0.410156 -0.261719 0.457031 -0.269531 0.496094 -0.285156 C 0.5625 -0.3125 0.613281 -0.351562 0.640625 -0.398438 C 0.667969 -0.449219 0.683594 -0.511719 0.683594 -0.59375 L 0.683594 -2.488281 C 0.683594 -2.5625 0.667969 -2.628906 0.632812 -2.6875 C 0.597656 -2.746094 0.554688 -2.789062 0.5 -2.824219 C 0.460938 -2.851562 0.402344 -2.875 0.324219 -2.898438 C 0.246094 -2.925781 0.171875 -2.9375 0.105469 -2.945312 L 0.105469 -3.183594 L 1.703125 -3.269531 L 1.75 -3.21875 L 1.75 -0.632812 C 1.75 -0.558594 1.765625 -0.496094 1.800781 -0.441406 C 1.832031 -0.386719 1.878906 -0.347656 1.941406 -0.320312 C 1.984375 -0.304688 2.03125 -0.285156 2.082031 -0.269531 C 2.136719 -0.253906 2.191406 -0.242188 2.246094 -0.238281 L 2.246094 0 M 2.0625 -4.753906 C 2.0625 -4.65625 2.042969 -4.578125 1.996094 -4.515625 C 1.953125 -4.457031 1.882812 -4.394531 1.785156 -4.332031 C 1.675781 -4.261719 1.507812 -4.164062 1.277344 -4.039062 C 1.050781 -3.910156 0.789062 -3.757812 0.496094 -3.582031 L 0.359375 -3.707031 C 0.550781 -3.960938 0.699219 -4.164062 0.804688 -4.316406 C 0.90625 -4.464844 1 -4.59375 1.074219 -4.699219 C 1.167969 -4.832031 1.257812 -4.921875 1.339844 -4.96875 C 1.425781 -5.015625 1.53125 -5.039062 1.65625 -5.039062 C 1.761719 -5.039062 1.855469 -5.011719 1.9375 -4.953125 C 2.023438 -4.898438 2.0625 -4.832031 2.0625 -4.753906 Z "/>
</g>
<g id="glyph-1-14">
<path d="M 4.433594 -0.0703125 L 2.878906 0.0273438 L 2.832031 -0.0195312 L 2.832031 -0.445312 L 2.8125 -0.445312 C 2.738281 -0.378906 2.667969 -0.3125 2.597656 -0.25 C 2.527344 -0.183594 2.441406 -0.125 2.34375 -0.0742188 C 2.234375 -0.015625 2.128906 0.0273438 2.03125 0.0546875 C 1.933594 0.0820312 1.789062 0.0976562 1.601562 0.0976562 C 1.273438 0.0976562 1.023438 0 0.847656 -0.199219 C 0.671875 -0.394531 0.585938 -0.675781 0.585938 -1.035156 L 0.585938 -2.5 C 0.585938 -2.585938 0.570312 -2.652344 0.539062 -2.707031 C 0.503906 -2.761719 0.460938 -2.808594 0.40625 -2.847656 C 0.363281 -2.878906 0.308594 -2.902344 0.238281 -2.917969 C 0.171875 -2.933594 0.109375 -2.941406 0.0507812 -2.945312 L 0.0507812 -3.183594 L 1.625 -3.269531 L 1.660156 -3.21875 L 1.660156 -1.054688 C 1.660156 -0.832031 1.703125 -0.667969 1.789062 -0.558594 C 1.875 -0.453125 1.992188 -0.398438 2.140625 -0.398438 C 2.296875 -0.398438 2.433594 -0.441406 2.558594 -0.519531 C 2.679688 -0.601562 2.769531 -0.6875 2.824219 -0.777344 L 2.824219 -2.53125 C 2.824219 -2.605469 2.8125 -2.671875 2.78125 -2.730469 C 2.753906 -2.789062 2.714844 -2.835938 2.660156 -2.875 C 2.621094 -2.898438 2.566406 -2.917969 2.492188 -2.925781 C 2.417969 -2.933594 2.34375 -2.941406 2.269531 -2.945312 L 2.269531 -3.183594 L 3.851562 -3.269531 L 3.898438 -3.21875 L 3.898438 -0.707031 C 3.898438 -0.628906 3.914062 -0.566406 3.945312 -0.511719 C 3.976562 -0.460938 4.019531 -0.414062 4.078125 -0.378906 C 4.117188 -0.351562 4.171875 -0.332031 4.238281 -0.324219 C 4.304688 -0.3125 4.367188 -0.308594 4.433594 -0.304688 Z "/>
</g>
<g id="glyph-1-15">
<path d="M 3.867188 -2.992188 C 3.769531 -2.976562 3.675781 -2.9375 3.582031 -2.878906 C 3.488281 -2.820312 3.414062 -2.730469 3.351562 -2.605469 C 3.167969 -2.210938 2.972656 -1.792969 2.777344 -1.347656 C 2.578125 -0.898438 2.359375 -0.417969 2.117188 0.101562 C 1.984375 0.390625 1.855469 0.625 1.726562 0.796875 C 1.601562 0.972656 1.484375 1.105469 1.375 1.199219 C 1.269531 1.285156 1.167969 1.347656 1.0625 1.386719 C 0.960938 1.425781 0.859375 1.445312 0.753906 1.445312 C 0.550781 1.445312 0.382812 1.386719 0.253906 1.273438 C 0.128906 1.15625 0.0664062 1.027344 0.0664062 0.886719 C 0.0664062 0.824219 0.0703125 0.769531 0.0859375 0.714844 C 0.101562 0.664062 0.128906 0.609375 0.175781 0.554688 C 0.210938 0.503906 0.265625 0.464844 0.335938 0.429688 C 0.410156 0.398438 0.492188 0.378906 0.582031 0.378906 C 0.703125 0.378906 0.820312 0.421875 0.929688 0.507812 C 1.042969 0.59375 1.15625 0.710938 1.273438 0.859375 C 1.347656 0.789062 1.433594 0.679688 1.539062 0.539062 C 1.644531 0.394531 1.722656 0.25 1.773438 0.0976562 C 1.515625 -0.441406 1.285156 -0.914062 1.085938 -1.3125 C 0.886719 -1.710938 0.664062 -2.152344 0.417969 -2.644531 C 0.363281 -2.746094 0.289062 -2.828125 0.199219 -2.886719 C 0.105469 -2.941406 0.0117188 -2.976562 -0.0898438 -2.992188 L -0.0898438 -3.230469 L 1.902344 -3.230469 L 1.902344 -2.992188 C 1.828125 -2.988281 1.742188 -2.972656 1.644531 -2.941406 C 1.550781 -2.914062 1.5 -2.875 1.5 -2.824219 C 1.5 -2.808594 1.503906 -2.789062 1.511719 -2.769531 C 1.519531 -2.746094 1.53125 -2.71875 1.546875 -2.679688 C 1.621094 -2.527344 1.726562 -2.316406 1.859375 -2.046875 C 1.996094 -1.777344 2.152344 -1.460938 2.335938 -1.101562 C 2.46875 -1.410156 2.582031 -1.671875 2.675781 -1.894531 C 2.769531 -2.117188 2.863281 -2.335938 2.953125 -2.550781 C 2.972656 -2.601562 2.984375 -2.644531 2.988281 -2.675781 C 2.992188 -2.707031 2.992188 -2.730469 2.992188 -2.742188 C 2.992188 -2.78125 2.976562 -2.8125 2.9375 -2.84375 C 2.898438 -2.871094 2.855469 -2.898438 2.800781 -2.917969 C 2.746094 -2.941406 2.695312 -2.957031 2.644531 -2.96875 C 2.597656 -2.980469 2.554688 -2.988281 2.523438 -2.992188 L 2.523438 -3.230469 L 3.867188 -3.230469 Z "/>
</g>
<g id="glyph-1-16">
<path d="M 4.394531 -0.0703125 L 2.789062 0.0273438 L 2.742188 -0.0195312 L 2.742188 -0.320312 L 2.71875 -0.324219 C 2.613281 -0.210938 2.46875 -0.109375 2.289062 -0.0234375 C 2.105469 0.0625 1.921875 0.105469 1.738281 0.105469 C 1.300781 0.105469 0.941406 -0.0585938 0.65625 -0.382812 C 0.375 -0.710938 0.230469 -1.128906 0.230469 -1.648438 C 0.230469 -2.105469 0.390625 -2.492188 0.707031 -2.8125 C 1.023438 -3.132812 1.410156 -3.292969 1.859375 -3.292969 C 2.039062 -3.292969 2.203125 -3.273438 2.359375 -3.234375 C 2.515625 -3.195312 2.640625 -3.148438 2.734375 -3.09375 L 2.734375 -3.746094 L 1.457031 -3.746094 L 1.457031 -4.070312 L 2.734375 -4.070312 L 2.734375 -4.179688 C 2.734375 -4.261719 2.71875 -4.335938 2.683594 -4.40625 C 2.652344 -4.476562 2.609375 -4.53125 2.554688 -4.570312 C 2.488281 -4.617188 2.402344 -4.652344 2.304688 -4.671875 C 2.203125 -4.695312 2.101562 -4.707031 2 -4.71875 L 2 -4.953125 L 3.757812 -5.039062 L 3.808594 -4.988281 L 3.808594 -4.070312 L 4.523438 -4.070312 L 4.523438 -3.746094 L 3.808594 -3.746094 L 3.808594 -0.71875 C 3.808594 -0.636719 3.820312 -0.566406 3.847656 -0.511719 C 3.875 -0.453125 3.917969 -0.410156 3.980469 -0.378906 C 4.027344 -0.355469 4.09375 -0.335938 4.179688 -0.324219 C 4.265625 -0.316406 4.339844 -0.308594 4.394531 -0.304688 L 4.394531 -0.0703125 M 2.734375 -0.648438 L 2.734375 -2.464844 C 2.71875 -2.515625 2.699219 -2.570312 2.671875 -2.628906 C 2.644531 -2.691406 2.605469 -2.75 2.558594 -2.800781 C 2.519531 -2.851562 2.460938 -2.890625 2.386719 -2.925781 C 2.3125 -2.957031 2.230469 -2.976562 2.140625 -2.976562 C 1.921875 -2.976562 1.746094 -2.855469 1.609375 -2.617188 C 1.46875 -2.382812 1.398438 -2.039062 1.398438 -1.589844 C 1.398438 -1.414062 1.414062 -1.257812 1.4375 -1.117188 C 1.460938 -0.976562 1.503906 -0.851562 1.570312 -0.734375 C 1.632812 -0.621094 1.710938 -0.53125 1.808594 -0.464844 C 1.910156 -0.398438 2.027344 -0.367188 2.167969 -0.367188 C 2.296875 -0.367188 2.40625 -0.394531 2.492188 -0.445312 C 2.582031 -0.496094 2.660156 -0.5625 2.734375 -0.648438 Z "/>
</g>
<g id="glyph-1-17">
<path d="M 3.898438 0 L 1.863281 0 L 1.863281 -0.238281 C 1.972656 -0.242188 2.0625 -0.253906 2.132812 -0.265625 C 2.203125 -0.277344 2.242188 -0.300781 2.242188 -0.339844 C 2.242188 -0.355469 2.230469 -0.382812 2.214844 -0.417969 C 2.195312 -0.457031 2.171875 -0.5 2.144531 -0.542969 C 2.101562 -0.609375 2.03125 -0.71875 1.929688 -0.863281 C 1.828125 -1.007812 1.734375 -1.144531 1.644531 -1.269531 C 1.519531 -1.121094 1.414062 -0.996094 1.328125 -0.894531 C 1.242188 -0.789062 1.152344 -0.675781 1.0625 -0.558594 C 1.027344 -0.519531 1.003906 -0.480469 0.992188 -0.449219 C 0.980469 -0.417969 0.972656 -0.398438 0.972656 -0.390625 C 0.972656 -0.339844 1.007812 -0.304688 1.078125 -0.277344 C 1.148438 -0.25 1.234375 -0.238281 1.332031 -0.238281 L 1.332031 0 L 0.0078125 0 L 0.0078125 -0.238281 C 0.1875 -0.273438 0.328125 -0.332031 0.433594 -0.414062 C 0.539062 -0.492188 0.609375 -0.554688 0.644531 -0.597656 C 0.804688 -0.769531 0.9375 -0.910156 1.046875 -1.023438 C 1.15625 -1.136719 1.304688 -1.292969 1.488281 -1.496094 C 1.367188 -1.664062 1.214844 -1.875 1.039062 -2.121094 C 0.867188 -2.367188 0.71875 -2.570312 0.601562 -2.726562 C 0.542969 -2.804688 0.472656 -2.867188 0.386719 -2.910156 C 0.300781 -2.949219 0.191406 -2.976562 0.0546875 -2.992188 L 0.0546875 -3.230469 L 2.042969 -3.230469 L 2.042969 -2.992188 C 1.972656 -2.992188 1.902344 -2.988281 1.832031 -2.976562 C 1.765625 -2.96875 1.730469 -2.953125 1.730469 -2.933594 C 1.730469 -2.914062 1.734375 -2.894531 1.746094 -2.867188 C 1.757812 -2.839844 1.769531 -2.816406 1.789062 -2.785156 C 1.828125 -2.71875 1.894531 -2.613281 1.984375 -2.480469 C 2.070312 -2.347656 2.167969 -2.207031 2.269531 -2.058594 C 2.367188 -2.175781 2.449219 -2.273438 2.515625 -2.351562 C 2.582031 -2.425781 2.664062 -2.535156 2.769531 -2.671875 C 2.808594 -2.722656 2.832031 -2.761719 2.84375 -2.789062 C 2.851562 -2.816406 2.859375 -2.832031 2.859375 -2.839844 C 2.859375 -2.875 2.835938 -2.910156 2.789062 -2.9375 C 2.742188 -2.96875 2.648438 -2.984375 2.511719 -2.992188 L 2.511719 -3.230469 L 3.808594 -3.230469 L 3.808594 -2.992188 C 3.703125 -2.972656 3.597656 -2.9375 3.5 -2.882812 C 3.398438 -2.828125 3.296875 -2.746094 3.1875 -2.628906 C 3.019531 -2.453125 2.894531 -2.324219 2.816406 -2.246094 C 2.742188 -2.164062 2.613281 -2.027344 2.4375 -1.839844 C 2.535156 -1.699219 2.679688 -1.492188 2.867188 -1.222656 C 3.058594 -0.953125 3.21875 -0.726562 3.355469 -0.542969 C 3.414062 -0.460938 3.480469 -0.394531 3.554688 -0.339844 C 3.625 -0.289062 3.742188 -0.253906 3.898438 -0.238281 Z "/>
</g>
<g id="glyph-1-18">
<path d="M 3.910156 -0.0703125 C 3.8125 -0.0273438 3.703125 0.0117188 3.570312 0.046875 C 3.441406 0.0820312 3.304688 0.0976562 3.160156 0.0976562 C 2.894531 0.0976562 2.695312 0.0585938 2.570312 -0.0195312 C 2.445312 -0.101562 2.359375 -0.214844 2.3125 -0.359375 L 2.296875 -0.359375 C 2.222656 -0.289062 2.148438 -0.222656 2.082031 -0.171875 C 2.011719 -0.121094 1.941406 -0.0742188 1.859375 -0.0390625 C 1.757812 0.0078125 1.660156 0.0429688 1.566406 0.0703125 C 1.472656 0.09375 1.339844 0.105469 1.171875 0.105469 C 0.917969 0.105469 0.703125 0.03125 0.523438 -0.121094 C 0.347656 -0.269531 0.257812 -0.464844 0.257812 -0.710938 C 0.257812 -0.851562 0.277344 -0.972656 0.316406 -1.070312 C 0.355469 -1.171875 0.410156 -1.257812 0.480469 -1.332031 C 0.546875 -1.402344 0.621094 -1.460938 0.707031 -1.507812 C 0.792969 -1.550781 0.886719 -1.59375 0.992188 -1.632812 C 1.1875 -1.707031 1.421875 -1.78125 1.695312 -1.855469 C 1.96875 -1.933594 2.167969 -2.003906 2.296875 -2.0625 L 2.296875 -2.375 C 2.296875 -2.429688 2.289062 -2.503906 2.28125 -2.589844 C 2.273438 -2.679688 2.253906 -2.753906 2.226562 -2.816406 C 2.195312 -2.886719 2.148438 -2.945312 2.082031 -2.992188 C 2.019531 -3.039062 1.933594 -3.0625 1.824219 -3.0625 C 1.730469 -3.0625 1.652344 -3.050781 1.585938 -3.023438 C 1.523438 -2.996094 1.472656 -2.96875 1.433594 -2.9375 C 1.4375 -2.894531 1.457031 -2.828125 1.488281 -2.742188 C 1.519531 -2.652344 1.53125 -2.566406 1.53125 -2.484375 C 1.53125 -2.445312 1.523438 -2.402344 1.503906 -2.34375 C 1.484375 -2.289062 1.457031 -2.246094 1.417969 -2.214844 C 1.367188 -2.171875 1.3125 -2.136719 1.25 -2.113281 C 1.1875 -2.089844 1.09375 -2.078125 0.964844 -2.078125 C 0.78125 -2.078125 0.644531 -2.121094 0.550781 -2.207031 C 0.457031 -2.296875 0.410156 -2.410156 0.410156 -2.550781 C 0.410156 -2.671875 0.457031 -2.78125 0.554688 -2.878906 C 0.652344 -2.976562 0.769531 -3.054688 0.90625 -3.117188 C 1.046875 -3.183594 1.203125 -3.234375 1.378906 -3.269531 C 1.558594 -3.304688 1.722656 -3.324219 1.875 -3.324219 C 2.085938 -3.324219 2.277344 -3.3125 2.453125 -3.285156 C 2.628906 -3.261719 2.789062 -3.210938 2.929688 -3.132812 C 3.0625 -3.054688 3.171875 -2.945312 3.25 -2.800781 C 3.328125 -2.65625 3.367188 -2.46875 3.367188 -2.234375 C 3.367188 -1.992188 3.363281 -1.699219 3.355469 -1.363281 C 3.34375 -1.027344 3.339844 -0.804688 3.339844 -0.699219 C 3.339844 -0.601562 3.355469 -0.523438 3.382812 -0.46875 C 3.414062 -0.414062 3.457031 -0.371094 3.519531 -0.339844 C 3.554688 -0.324219 3.613281 -0.3125 3.691406 -0.3125 C 3.773438 -0.308594 3.84375 -0.304688 3.910156 -0.304688 L 3.910156 -0.0703125 M 2.296875 -1.765625 C 2.171875 -1.722656 2.050781 -1.675781 1.933594 -1.621094 C 1.8125 -1.570312 1.714844 -1.511719 1.636719 -1.453125 C 1.558594 -1.394531 1.496094 -1.316406 1.449219 -1.222656 C 1.402344 -1.125 1.378906 -1.015625 1.378906 -0.886719 C 1.378906 -0.71875 1.417969 -0.59375 1.496094 -0.519531 C 1.574219 -0.441406 1.667969 -0.402344 1.78125 -0.402344 C 1.902344 -0.402344 2 -0.429688 2.078125 -0.476562 C 2.15625 -0.527344 2.222656 -0.585938 2.28125 -0.65625 L 2.296875 -1.765625 M 2.878906 -4.753906 C 2.878906 -4.65625 2.859375 -4.578125 2.8125 -4.515625 C 2.769531 -4.457031 2.699219 -4.394531 2.601562 -4.332031 C 2.496094 -4.261719 2.328125 -4.164062 2.097656 -4.039062 C 1.867188 -3.910156 1.605469 -3.757812 1.316406 -3.582031 L 1.179688 -3.707031 C 1.371094 -3.960938 1.515625 -4.164062 1.621094 -4.316406 C 1.726562 -4.464844 1.816406 -4.59375 1.890625 -4.699219 C 1.984375 -4.832031 2.074219 -4.921875 2.15625 -4.96875 C 2.242188 -5.015625 2.347656 -5.039062 2.472656 -5.039062 C 2.578125 -5.039062 2.671875 -5.011719 2.753906 -4.953125 C 2.839844 -4.898438 2.878906 -4.832031 2.878906 -4.753906 Z "/>
</g>
<g id="glyph-1-19">
<path d="M 3.898438 -2.992188 C 3.800781 -2.976562 3.707031 -2.9375 3.613281 -2.878906 C 3.523438 -2.820312 3.445312 -2.730469 3.386719 -2.605469 C 3.234375 -2.289062 3.085938 -1.972656 2.9375 -1.648438 C 2.792969 -1.328125 2.648438 -1.015625 2.507812 -0.710938 C 2.464844 -0.621094 2.414062 -0.503906 2.359375 -0.359375 C 2.304688 -0.21875 2.257812 -0.0859375 2.21875 0.0273438 L 1.621094 0.0273438 C 1.371094 -0.550781 1.160156 -1.03125 0.980469 -1.414062 C 0.804688 -1.792969 0.617188 -2.203125 0.417969 -2.644531 C 0.375 -2.746094 0.304688 -2.824219 0.207031 -2.882812 C 0.109375 -2.941406 0.0117188 -2.976562 -0.0859375 -2.992188 L -0.0859375 -3.230469 L 1.917969 -3.230469 L 1.917969 -2.992188 C 1.84375 -2.988281 1.757812 -2.972656 1.65625 -2.941406 C 1.558594 -2.914062 1.507812 -2.875 1.507812 -2.824219 C 1.507812 -2.8125 1.511719 -2.792969 1.519531 -2.765625 C 1.527344 -2.742188 1.539062 -2.710938 1.554688 -2.679688 C 1.621094 -2.515625 1.726562 -2.277344 1.867188 -1.964844 C 2.007812 -1.65625 2.15625 -1.328125 2.3125 -0.988281 C 2.421875 -1.222656 2.523438 -1.457031 2.625 -1.683594 C 2.722656 -1.910156 2.84375 -2.199219 2.988281 -2.546875 C 3.007812 -2.601562 3.019531 -2.644531 3.023438 -2.675781 C 3.027344 -2.707031 3.027344 -2.730469 3.027344 -2.742188 C 3.027344 -2.78125 3.007812 -2.8125 2.972656 -2.84375 C 2.933594 -2.871094 2.886719 -2.898438 2.835938 -2.917969 C 2.78125 -2.941406 2.730469 -2.957031 2.679688 -2.96875 C 2.628906 -2.980469 2.589844 -2.988281 2.554688 -2.992188 L 2.554688 -3.230469 L 3.898438 -3.230469 Z "/>
</g>
<g id="glyph-1-20">
<path d="M 3.910156 -0.0703125 C 3.8125 -0.0273438 3.703125 0.0117188 3.570312 0.046875 C 3.441406 0.0820312 3.304688 0.0976562 3.160156 0.0976562 C 2.894531 0.0976562 2.695312 0.0585938 2.570312 -0.0195312 C 2.445312 -0.101562 2.359375 -0.214844 2.3125 -0.359375 L 2.296875 -0.359375 C 2.222656 -0.289062 2.148438 -0.222656 2.082031 -0.171875 C 2.011719 -0.121094 1.941406 -0.0742188 1.859375 -0.0390625 C 1.757812 0.0078125 1.660156 0.0429688 1.566406 0.0703125 C 1.472656 0.09375 1.339844 0.105469 1.171875 0.105469 C 0.917969 0.105469 0.703125 0.03125 0.523438 -0.121094 C 0.347656 -0.269531 0.257812 -0.464844 0.257812 -0.710938 C 0.257812 -0.851562 0.277344 -0.972656 0.316406 -1.070312 C 0.355469 -1.171875 0.410156 -1.257812 0.480469 -1.332031 C 0.546875 -1.402344 0.621094 -1.460938 0.707031 -1.507812 C 0.792969 -1.550781 0.886719 -1.59375 0.992188 -1.632812 C 1.1875 -1.707031 1.421875 -1.78125 1.695312 -1.855469 C 1.96875 -1.933594 2.167969 -2.003906 2.296875 -2.0625 L 2.296875 -2.375 C 2.296875 -2.429688 2.289062 -2.503906 2.28125 -2.589844 C 2.273438 -2.679688 2.253906 -2.753906 2.226562 -2.816406 C 2.195312 -2.886719 2.148438 -2.945312 2.082031 -2.992188 C 2.019531 -3.039062 1.933594 -3.0625 1.824219 -3.0625 C 1.730469 -3.0625 1.652344 -3.050781 1.585938 -3.023438 C 1.523438 -2.996094 1.472656 -2.96875 1.433594 -2.9375 C 1.4375 -2.894531 1.457031 -2.828125 1.488281 -2.742188 C 1.519531 -2.652344 1.53125 -2.566406 1.53125 -2.484375 C 1.53125 -2.445312 1.523438 -2.402344 1.503906 -2.34375 C 1.484375 -2.289062 1.457031 -2.246094 1.417969 -2.214844 C 1.367188 -2.171875 1.3125 -2.136719 1.25 -2.113281 C 1.1875 -2.089844 1.09375 -2.078125 0.964844 -2.078125 C 0.78125 -2.078125 0.644531 -2.121094 0.550781 -2.207031 C 0.457031 -2.296875 0.410156 -2.410156 0.410156 -2.550781 C 0.410156 -2.671875 0.457031 -2.78125 0.554688 -2.878906 C 0.652344 -2.976562 0.769531 -3.054688 0.90625 -3.117188 C 1.046875 -3.183594 1.203125 -3.234375 1.378906 -3.269531 C 1.558594 -3.304688 1.722656 -3.324219 1.875 -3.324219 C 2.085938 -3.324219 2.277344 -3.3125 2.453125 -3.285156 C 2.628906 -3.261719 2.789062 -3.210938 2.929688 -3.132812 C 3.0625 -3.054688 3.171875 -2.945312 3.25 -2.800781 C 3.328125 -2.65625 3.367188 -2.46875 3.367188 -2.234375 C 3.367188 -1.992188 3.363281 -1.699219 3.355469 -1.363281 C 3.34375 -1.027344 3.339844 -0.804688 3.339844 -0.699219 C 3.339844 -0.601562 3.355469 -0.523438 3.382812 -0.46875 C 3.414062 -0.414062 3.457031 -0.371094 3.519531 -0.339844 C 3.554688 -0.324219 3.613281 -0.3125 3.691406 -0.3125 C 3.773438 -0.308594 3.84375 -0.304688 3.910156 -0.304688 L 3.910156 -0.0703125 M 2.296875 -1.765625 C 2.171875 -1.722656 2.050781 -1.675781 1.933594 -1.621094 C 1.8125 -1.570312 1.714844 -1.511719 1.636719 -1.453125 C 1.558594 -1.394531 1.496094 -1.316406 1.449219 -1.222656 C 1.402344 -1.125 1.378906 -1.015625 1.378906 -0.886719 C 1.378906 -0.71875 1.417969 -0.59375 1.496094 -0.519531 C 1.574219 -0.441406 1.667969 -0.402344 1.78125 -0.402344 C 1.902344 -0.402344 2 -0.429688 2.078125 -0.476562 C 2.15625 -0.527344 2.222656 -0.585938 2.28125 -0.65625 L 2.296875 -1.765625 M 2.675781 -3.707031 L 2.539062 -3.582031 C 2.179688 -3.800781 1.90625 -3.957031 1.722656 -4.054688 C 1.539062 -4.152344 1.382812 -4.242188 1.253906 -4.332031 C 1.152344 -4.402344 1.078125 -4.464844 1.035156 -4.515625 C 0.996094 -4.570312 0.972656 -4.648438 0.972656 -4.753906 C 0.972656 -4.832031 1.015625 -4.898438 1.097656 -4.953125 C 1.183594 -5.011719 1.277344 -5.039062 1.378906 -5.039062 C 1.511719 -5.039062 1.617188 -5.019531 1.695312 -4.980469 C 1.773438 -4.9375 1.863281 -4.847656 1.960938 -4.699219 C 2.035156 -4.597656 2.132812 -4.457031 2.253906 -4.285156 C 2.375 -4.113281 2.515625 -3.921875 2.675781 -3.707031 Z "/>
</g>
<g id="glyph-1-21">
<path d="M 4.410156 1.445312 L 2.128906 1.445312 L 2.128906 1.203125 C 2.191406 1.199219 2.261719 1.191406 2.347656 1.183594 C 2.433594 1.171875 2.5 1.160156 2.546875 1.140625 C 2.617188 1.121094 2.664062 1.082031 2.691406 1.023438 C 2.71875 0.96875 2.734375 0.902344 2.734375 0.824219 L 2.734375 -0.3125 L 2.707031 -0.320312 C 2.671875 -0.285156 2.625 -0.242188 2.5625 -0.191406 C 2.503906 -0.140625 2.433594 -0.0976562 2.347656 -0.0585938 C 2.253906 -0.0117188 2.164062 0.0234375 2.078125 0.046875 C 1.992188 0.0703125 1.878906 0.0859375 1.738281 0.0859375 C 1.289062 0.0859375 0.925781 -0.0703125 0.648438 -0.382812 C 0.371094 -0.695312 0.230469 -1.117188 0.230469 -1.648438 C 0.230469 -2.125 0.398438 -2.523438 0.730469 -2.839844 C 1.0625 -3.160156 1.480469 -3.316406 1.988281 -3.316406 C 2.242188 -3.316406 2.476562 -3.289062 2.679688 -3.230469 C 2.886719 -3.171875 3.078125 -3.097656 3.257812 -3.003906 L 3.679688 -3.421875 L 3.859375 -3.378906 C 3.855469 -3.242188 3.84375 -3.0625 3.828125 -2.84375 C 3.816406 -2.625 3.808594 -2.441406 3.808594 -2.296875 L 3.808594 0.769531 C 3.808594 0.847656 3.824219 0.917969 3.851562 0.976562 C 3.882812 1.03125 3.929688 1.074219 3.992188 1.101562 C 4.042969 1.125 4.105469 1.144531 4.1875 1.164062 C 4.273438 1.183594 4.34375 1.199219 4.410156 1.203125 L 4.410156 1.445312 M 2.734375 -0.648438 L 2.734375 -2.488281 C 2.71875 -2.542969 2.699219 -2.601562 2.671875 -2.664062 C 2.644531 -2.726562 2.605469 -2.785156 2.554688 -2.84375 C 2.507812 -2.898438 2.449219 -2.945312 2.378906 -2.976562 C 2.308594 -3.011719 2.222656 -3.03125 2.125 -3.03125 C 1.90625 -3.03125 1.734375 -2.902344 1.597656 -2.648438 C 1.464844 -2.394531 1.398438 -2.046875 1.398438 -1.597656 C 1.398438 -1.414062 1.414062 -1.253906 1.441406 -1.113281 C 1.46875 -0.976562 1.511719 -0.851562 1.570312 -0.75 C 1.632812 -0.632812 1.710938 -0.542969 1.800781 -0.480469 C 1.894531 -0.417969 2.015625 -0.386719 2.167969 -0.386719 C 2.304688 -0.386719 2.417969 -0.410156 2.503906 -0.457031 C 2.589844 -0.503906 2.667969 -0.566406 2.734375 -0.648438 Z "/>
</g>
<g id="glyph-1-22">
<path d="M 1.886719 -4.105469 C 1.886719 -4.015625 1.871094 -3.898438 1.839844 -3.75 C 1.808594 -3.605469 1.769531 -3.433594 1.722656 -3.234375 C 1.675781 -3.050781 1.625 -2.816406 1.566406 -2.539062 C 1.507812 -2.257812 1.445312 -1.914062 1.378906 -1.503906 L 1.128906 -1.503906 C 1.0625 -1.917969 1.003906 -2.261719 0.945312 -2.539062 C 0.886719 -2.816406 0.832031 -3.046875 0.789062 -3.230469 C 0.746094 -3.402344 0.707031 -3.570312 0.671875 -3.734375 C 0.640625 -3.898438 0.621094 -4.023438 0.621094 -4.105469 C 0.621094 -4.273438 0.683594 -4.414062 0.808594 -4.53125 C 0.929688 -4.652344 1.078125 -4.710938 1.253906 -4.710938 C 1.425781 -4.710938 1.574219 -4.652344 1.699219 -4.53125 C 1.824219 -4.414062 1.886719 -4.273438 1.886719 -4.105469 M 1.882812 -0.507812 C 1.882812 -0.34375 1.820312 -0.203125 1.695312 -0.0820312 C 1.570312 0.0351562 1.421875 0.09375 1.257812 0.09375 C 1.085938 0.09375 0.941406 0.0351562 0.816406 -0.0820312 C 0.691406 -0.203125 0.628906 -0.34375 0.628906 -0.507812 C 0.628906 -0.671875 0.691406 -0.816406 0.816406 -0.9375 C 0.941406 -1.054688 1.085938 -1.117188 1.257812 -1.117188 C 1.421875 -1.117188 1.570312 -1.054688 1.695312 -0.9375 C 1.820312 -0.816406 1.882812 -0.671875 1.882812 -0.507812 Z "/>
</g>
</g>
</defs>
<path fill="none" stroke-width="0.17616" stroke-linecap="butt" stroke-linejoin="miter" stroke="rgb(100%, 85.098039%, 23.921569%)" stroke-opacity="1" stroke-miterlimit="2" d="M 37.265625 20.261719 L 45.882812 20.261719 L 45.882812 28.980469 L 37.265625 28.980469 Z "/>
<g fill="rgb(100%, 85.098039%, 23.921569%)" fill-opacity="1">
<use xlink:href="#glyph-0-0" x="37.527344" y="24.535156"/>
</g>
<g fill="rgb(100%, 85.098039%, 23.921569%)" fill-opacity="1">
<use xlink:href="#glyph-0-1" x="41.660156" y="24.535156"/>
</g>
<g fill="rgb(100%, 85.098039%, 23.921569%)" fill-opacity="1">
<use xlink:href="#glyph-0-2" x="37.527344" y="28.71875"/>
</g>
<g fill="rgb(100%, 85.098039%, 23.921569%)" fill-opacity="1">
<use xlink:href="#glyph-0-3" x="41.660156" y="28.71875"/>
</g>
<path fill="none" stroke-width="0.17616" stroke-linecap="butt" stroke-linejoin="miter" stroke="rgb(100%, 85.098039%, 23.921569%)" stroke-opacity="1" stroke-miterlimit="2" d="M 61.265625 20.261719 L 69.882812 20.261719 L 69.882812 28.980469 L 61.265625 28.980469 Z "/>
<g fill="rgb(100%, 85.098039%, 23.921569%)" fill-opacity="1">
<use xlink:href="#glyph-0-0" x="61.527344" y="24.535156"/>
</g>
<g fill="rgb(100%, 85.098039%, 23.921569%)" fill-opacity="1">
<use xlink:href="#glyph-0-1" x="65.660156" y="24.535156"/>
</g>
<g fill="rgb(100%, 85.098039%, 23.921569%)" fill-opacity="1">
<use xlink:href="#glyph-0-2" x="61.527344" y="28.71875"/>
</g>
<g fill="rgb(100%, 85.098039%, 23.921569%)" fill-opacity="1">
<use xlink:href="#glyph-0-4" x="65.660156" y="28.71875"/>
</g>
<path fill="none" stroke-width="0.17616" stroke-linecap="butt" stroke-linejoin="miter" stroke="rgb(100%, 85.098039%, 23.921569%)" stroke-opacity="1" stroke-miterlimit="2" d="M 83.265625 20.261719 L 91.882812 20.261719 L 91.882812 28.980469 L 83.265625 28.980469 Z "/>
<g fill="rgb(100%, 85.098039%, 23.921569%)" fill-opacity="1">
<use xlink:href="#glyph-0-0" x="83.527344" y="24.535156"/>
</g>
<g fill="rgb(100%, 85.098039%, 23.921569%)" fill-opacity="1">
<use xlink:href="#glyph-0-1" x="87.660156" y="24.535156"/>
</g>
<g fill="rgb(100%, 85.098039%, 23.921569%)" fill-opacity="1">
<use xlink:href="#glyph-0-1" x="83.527344" y="28.71875"/>
</g>
<g fill="rgb(100%, 85.098039%, 23.921569%)" fill-opacity="1">
<use xlink:href="#glyph-0-5" x="87.660156" y="28.71875"/>
</g>
<path fill="none" stroke-width="0.17616" stroke-linecap="butt" stroke-linejoin="miter" stroke="rgb(100%, 85.098039%, 23.921569%)" stroke-opacity="1" stroke-miterlimit="2" d="M 119.265625 20.261719 L 127.882812 20.261719 L 127.882812 28.980469 L 119.265625 28.980469 Z "/>
<g fill="rgb(100%, 85.098039%, 23.921569%)" fill-opacity="1">
<use xlink:href="#glyph-0-0" x="119.527344" y="24.535156"/>
</g>
<g fill="rgb(100%, 85.098039%, 23.921569%)" fill-opacity="1">
<use xlink:href="#glyph-0-1" x="123.660156" y="24.535156"/>
</g>
<g fill="rgb(100%, 85.098039%, 23.921569%)" fill-opacity="1">
<use xlink:href="#glyph-0-1" x="119.527344" y="28.71875"/>
</g>
<g fill="rgb(100%, 85.098039%, 23.921569%)" fill-opacity="1">
<use xlink:href="#glyph-0-6" x="123.660156" y="28.71875"/>
</g>
<path fill="none" stroke-width="0.17616" stroke-linecap="butt" stroke-linejoin="miter" stroke="rgb(100%, 85.098039%, 23.921569%)" stroke-opacity="1" stroke-miterlimit="2" d="M 205.265625 20.261719 L 213.882812 20.261719 L 213.882812 28.980469 L 205.265625 28.980469 Z "/>
<g fill="rgb(100%, 85.098039%, 23.921569%)" fill-opacity="1">
<use xlink:href="#glyph-0-0" x="205.527344" y="24.535156"/>
</g>
<g fill="rgb(100%, 85.098039%, 23.921569%)" fill-opacity="1">
<use xlink:href="#glyph-0-1" x="209.660156" y="24.535156"/>
</g>
<g fill="rgb(100%, 85.098039%, 23.921569%)" fill-opacity="1">
<use xlink:href="#glyph-0-2" x="205.527344" y="28.71875"/>
</g>
<g fill="rgb(100%, 85.098039%, 23.921569%)" fill-opacity="1">
<use xlink:href="#glyph-0-6" x="209.660156" y="28.71875"/>
</g>
<path fill="none" stroke-width="0.17616" stroke-linecap="butt" stroke-linejoin="miter" stroke="rgb(100%, 85.098039%, 23.921569%)" stroke-opacity="1" stroke-miterlimit="2" d="M 225.265625 20.261719 L 233.882812 20.261719 L 233.882812 28.980469 L 225.265625 28.980469 Z "/>
<g fill="rgb(100%, 85.098039%, 23.921569%)" fill-opacity="1">
<use xlink:href="#glyph-0-0" x="225.527344" y="24.535156"/>
</g>
<g fill="rgb(100%, 85.098039%, 23.921569%)" fill-opacity="1">
<use xlink:href="#glyph-0-1" x="229.660156" y="24.535156"/>
</g>
<g fill="rgb(100%, 85.098039%, 23.921569%)" fill-opacity="1">
<use xlink:href="#glyph-0-4" x="225.527344" y="28.71875"/>
</g>
<g fill="rgb(100%, 85.098039%, 23.921569%)" fill-opacity="1">
<use xlink:href="#glyph-0-7" x="229.660156" y="28.71875"/>
</g>
<path fill="none" stroke-width="0.17616" stroke-linecap="butt" stroke-linejoin="miter" stroke="rgb(100%, 85.098039%, 23.921569%)" stroke-opacity="1" stroke-miterlimit="2" d="M 299.265625 20.261719 L 307.882812 20.261719 L 307.882812 28.980469 L 299.265625 28.980469 Z "/>
<g fill="rgb(100%, 85.098039%, 23.921569%)" fill-opacity="1">
<use xlink:href="#glyph-0-0" x="299.527344" y="24.535156"/>
</g>
<g fill="rgb(100%, 85.098039%, 23.921569%)" fill-opacity="1">
<use xlink:href="#glyph-0-1" x="303.660156" y="24.535156"/>
</g>
<g fill="rgb(100%, 85.098039%, 23.921569%)" fill-opacity="1">
<use xlink:href="#glyph-0-2" x="299.527344" y="28.71875"/>
</g>
<g fill="rgb(100%, 85.098039%, 23.921569%)" fill-opacity="1">
<use xlink:href="#glyph-0-3" x="303.660156" y="28.71875"/>
</g>
<path fill="none" stroke-width="0.17616" stroke-linecap="butt" stroke-linejoin="miter" stroke="rgb(100%, 85.098039%, 23.921569%)" stroke-opacity="1" stroke-miterlimit="2" d="M 324.265625 20.261719 L 332.882812 20.261719 L 332.882812 28.980469 L 324.265625 28.980469 Z "/>
<g fill="rgb(100%, 85.098039%, 23.921569%)" fill-opacity="1">
<use xlink:href="#glyph-0-0" x="324.527344" y="24.535156"/>
</g>
<g fill="rgb(100%, 85.098039%, 23.921569%)" fill-opacity="1">
<use xlink:href="#glyph-0-1" x="328.660156" y="24.535156"/>
</g>
<g fill="rgb(100%, 85.098039%, 23.921569%)" fill-opacity="1">
<use xlink:href="#glyph-0-8" x="324.527344" y="28.71875"/>
</g>
<g fill="rgb(100%, 85.098039%, 23.921569%)" fill-opacity="1">
<use xlink:href="#glyph-0-6" x="328.660156" y="28.71875"/>
</g>
<path fill="none" stroke-width="0.17616" stroke-linecap="butt" stroke-linejoin="miter" stroke="rgb(100%, 85.098039%, 23.921569%)" stroke-opacity="1" stroke-miterlimit="2" d="M 340.265625 20.261719 L 348.882812 20.261719 L 348.882812 28.980469 L 340.265625 28.980469 Z "/>
<g fill="rgb(100%, 85.098039%, 23.921569%)" fill-opacity="1">
<use xlink:href="#glyph-0-9" x="340.527344" y="24.535156"/>
</g>
<g fill="rgb(100%, 85.098039%, 23.921569%)" fill-opacity="1">
<use xlink:href="#glyph-0-0" x="344.660156" y="24.535156"/>
</g>
<g fill="rgb(100%, 85.098039%, 23.921569%)" fill-opacity="1">
<use xlink:href="#glyph-0-8" x="340.527344" y="28.71875"/>
</g>
<g fill="rgb(100%, 85.098039%, 23.921569%)" fill-opacity="1">
<use xlink:href="#glyph-0-0" x="344.660156" y="28.71875"/>
</g>
<g fill="rgb(100%, 85.098039%, 23.921569%)" fill-opacity="1">
<use xlink:href="#glyph-1-0" x="30" y="27.355469"/>
<use xlink:href="#glyph-1-1" x="35" y="27.355469"/>
<use xlink:href="#glyph-1-2" x="46" y="27.355469"/>
<use xlink:href="#glyph-1-3" x="50" y="27.355469"/>
<use xlink:href="#glyph-1-2" x="52" y="27.355469"/>
<use xlink:href="#glyph-1-4" x="56" y="27.355469"/>
<use xlink:href="#glyph-1-5" x="70" y="27.355469"/>
<use xlink:href="#glyph-1-3" x="75" y="27.355469"/>
<use xlink:href="#glyph-1-6" x="77" y="27.355469"/>
<use xlink:href="#glyph-1-7" x="80" y="27.355469"/>
<use xlink:href="#glyph-1-2" x="92" y="27.355469"/>
<use xlink:href="#glyph-1-3" x="96" y="27.355469"/>
<use xlink:href="#glyph-1-8" x="98" y="27.355469"/>
<use xlink:href="#glyph-1-4" x="102" y="27.355469"/>
<use xlink:href="#glyph-1-9" x="107" y="27.355469"/>
<use xlink:href="#glyph-1-3" x="112" y="27.355469"/>
<use xlink:href="#glyph-1-4" x="114" y="27.355469"/>
<use xlink:href="#glyph-1-8" x="128" y="27.355469"/>
<use xlink:href="#glyph-1-3" x="132" y="27.355469"/>
<use xlink:href="#glyph-1-10" x="134" y="27.355469"/>
<use xlink:href="#glyph-1-1" x="138" y="27.355469"/>
<use xlink:href="#glyph-1-11" x="140" y="27.355469"/>
<use xlink:href="#glyph-1-8" x="145" y="27.355469"/>
<use xlink:href="#glyph-1-3" x="149" y="27.355469"/>
<use xlink:href="#glyph-1-8" x="151" y="27.355469"/>
<use xlink:href="#glyph-1-4" x="155" y="27.355469"/>
<use xlink:href="#glyph-1-12" x="160" y="27.355469"/>
<use xlink:href="#glyph-1-5" x="164" y="27.355469"/>
<use xlink:href="#glyph-1-3" x="169" y="27.355469"/>
<use xlink:href="#glyph-1-6" x="171" y="27.355469"/>
<use xlink:href="#glyph-1-13" x="174" y="27.355469"/>
<use xlink:href="#glyph-1-2" x="176" y="27.355469"/>
<use xlink:href="#glyph-1-4" x="180" y="27.355469"/>
<use xlink:href="#glyph-1-3" x="185" y="27.355469"/>
<use xlink:href="#glyph-1-2" x="187" y="27.355469"/>
<use xlink:href="#glyph-1-4" x="191" y="27.355469"/>
<use xlink:href="#glyph-1-14" x="196" y="27.355469"/>
<use xlink:href="#glyph-1-15" x="201" y="27.355469"/>
<use xlink:href="#glyph-1-5" x="214" y="27.355469"/>
<use xlink:href="#glyph-1-3" x="219" y="27.355469"/>
<use xlink:href="#glyph-1-16" x="221" y="27.355469"/>
<use xlink:href="#glyph-1-5" x="234" y="27.355469"/>
<use xlink:href="#glyph-1-10" x="239" y="27.355469"/>
<use xlink:href="#glyph-1-3" x="243" y="27.355469"/>
<use xlink:href="#glyph-1-2" x="245" y="27.355469"/>
<use xlink:href="#glyph-1-4" x="249" y="27.355469"/>
<use xlink:href="#glyph-1-13" x="254" y="27.355469"/>
<use xlink:href="#glyph-1-5" x="256" y="27.355469"/>
<use xlink:href="#glyph-1-4" x="261" y="27.355469"/>
<use xlink:href="#glyph-1-3" x="266" y="27.355469"/>
<use xlink:href="#glyph-1-17" x="268" y="27.355469"/>
<use xlink:href="#glyph-1-18" x="272" y="27.355469"/>
<use xlink:href="#glyph-1-2" x="276" y="27.355469"/>
<use xlink:href="#glyph-1-3" x="280" y="27.355469"/>
<use xlink:href="#glyph-1-19" x="282" y="27.355469"/>
<use xlink:href="#glyph-1-20" x="286" y="27.355469"/>
<use xlink:href="#glyph-1-3" x="290" y="27.355469"/>
<use xlink:href="#glyph-1-4" x="292" y="27.355469"/>
<use xlink:href="#glyph-1-1" x="297" y="27.355469"/>
<use xlink:href="#glyph-1-14" x="308" y="27.355469"/>
<use xlink:href="#glyph-1-3" x="313" y="27.355469"/>
<use xlink:href="#glyph-1-21" x="315" y="27.355469"/>
<use xlink:href="#glyph-1-14" x="319" y="27.355469"/>
<use xlink:href="#glyph-1-3" x="333" y="27.355469"/>
<use xlink:href="#glyph-1-4" x="335" y="27.355469"/>
<use xlink:href="#glyph-1-5" x="349" y="27.355469"/>
<use xlink:href="#glyph-1-22" x="354" y="27.355469"/>
</g>
</svg>
