<?xml version="1.0" encoding="UTF-8"?>
<svg xmlns="http://www.w3.org/2000/svg" xmlns:xlink="http://www.w3.org/1999/xlink" width="854" height="480" viewBox="0 0 854 480">
<defs>
<g>
<g id="glyph-0-0">
<path d="M 4.898438 -2.089844 L 5.6875 -1.890625 C 5.523438 -1.242188 5.226562 -0.75 4.796875 -0.410156 C 4.367188 -0.0703125 3.839844 0.101562 3.21875 0.101562 C 2.574219 0.101562 2.054688 -0.0273438 1.648438 -0.289062 C 1.246094 -0.550781 0.941406 -0.933594 0.730469 -1.429688 C 0.519531 -1.925781 0.414062 -2.457031 0.414062 -3.027344 C 0.414062 -3.648438 0.535156 -4.191406 0.769531 -4.652344 C 1.007812 -5.117188 1.347656 -5.464844 1.785156 -5.707031 C 2.222656 -5.945312 2.703125 -6.066406 3.230469 -6.066406 C 3.828125 -6.066406 4.328125 -5.914062 4.734375 -5.609375 C 5.144531 -5.308594 5.425781 -4.878906 5.585938 -4.328125 L 4.808594 -4.144531 C 4.671875 -4.582031 4.46875 -4.894531 4.207031 -5.09375 C 3.945312 -5.292969 3.613281 -5.390625 3.214844 -5.390625 C 2.757812 -5.390625 2.371094 -5.28125 2.066406 -5.0625 C 1.757812 -4.84375 1.539062 -4.546875 1.414062 -4.175781 C 1.292969 -3.804688 1.230469 -3.425781 1.230469 -3.03125 C 1.230469 -2.523438 1.304688 -2.082031 1.449219 -1.703125 C 1.597656 -1.324219 1.828125 -1.042969 2.140625 -0.855469 C 2.453125 -0.667969 2.789062 -0.574219 3.152344 -0.574219 C 3.59375 -0.574219 3.96875 -0.703125 4.277344 -0.957031 C 4.582031 -1.210938 4.789062 -1.589844 4.898438 -2.089844 Z "/>
</g>
<g id="glyph-0-1">
<path d="M 0.550781 0 L 0.550781 -5.964844 L 1.28125 -5.964844 L 1.28125 -3.824219 C 1.625 -4.222656 2.054688 -4.417969 2.574219 -4.417969 C 2.894531 -4.417969 3.171875 -4.355469 3.410156 -4.230469 C 3.644531 -4.105469 3.816406 -3.929688 3.917969 -3.707031 C 4.019531 -3.484375 4.070312 -3.160156 4.070312 -2.738281 L 4.070312 0 L 3.335938 0 L 3.335938 -2.738281 C 3.335938 -3.105469 3.257812 -3.371094 3.097656 -3.539062 C 2.941406 -3.703125 2.714844 -3.789062 2.425781 -3.789062 C 2.207031 -3.789062 2.003906 -3.730469 1.8125 -3.621094 C 1.621094 -3.507812 1.484375 -3.355469 1.402344 -3.160156 C 1.324219 -2.96875 1.28125 -2.703125 1.28125 -2.363281 L 1.28125 0 Z "/>
</g>
<g id="glyph-0-2">
<path d="M 0.554688 -5.121094 L 0.554688 -5.964844 L 1.285156 -5.964844 L 1.285156 -5.121094 L 0.554688 -5.121094 M 0.554688 0 L 0.554688 -4.320312 L 1.285156 -4.320312 L 1.285156 0 Z "/>
</g>
<g id="glyph-0-3">
<path d="M 3.507812 -1.390625 L 4.265625 -1.296875 C 4.144531 -0.855469 3.925781 -0.511719 3.601562 -0.269531 C 3.277344 -0.0234375 2.867188 0.0976562 2.363281 0.0976562 C 1.730469 0.0976562 1.230469 -0.0976562 0.859375 -0.484375 C 0.492188 -0.875 0.304688 -1.421875 0.304688 -2.125 C 0.304688 -2.851562 0.492188 -3.414062 0.867188 -3.816406 C 1.242188 -4.21875 1.726562 -4.417969 2.324219 -4.417969 C 2.902344 -4.417969 3.375 -4.222656 3.738281 -3.828125 C 4.105469 -3.4375 4.289062 -2.882812 4.289062 -2.167969 C 4.289062 -2.125 4.289062 -2.058594 4.285156 -1.972656 L 1.0625 -1.972656 C 1.089844 -1.5 1.222656 -1.136719 1.464844 -0.882812 C 1.707031 -0.628906 2.007812 -0.503906 2.367188 -0.503906 C 2.636719 -0.503906 2.867188 -0.574219 3.054688 -0.714844 C 3.246094 -0.855469 3.394531 -1.082031 3.507812 -1.390625 M 1.101562 -2.574219 L 3.515625 -2.574219 C 3.484375 -2.9375 3.390625 -3.210938 3.238281 -3.394531 C 3.003906 -3.675781 2.703125 -3.816406 2.332031 -3.816406 C 1.996094 -3.816406 1.710938 -3.703125 1.484375 -3.480469 C 1.253906 -3.253906 1.128906 -2.953125 1.101562 -2.574219 M 2.308594 -5.550781 L 1.847656 -4.859375 L 1.007812 -4.859375 L 1.886719 -5.996094 L 2.667969 -5.996094 L 3.585938 -4.859375 L 2.753906 -4.859375 L 2.308594 -5.550781 M 2.667969 -6.292969 L 2.078125 -6.292969 L 1.140625 -7.433594 L 2.121094 -7.433594 Z "/>
</g>
<g id="glyph-0-4">
<path d="M 3.382812 0 L 3.382812 -0.632812 C 3.046875 -0.144531 2.585938 0.0976562 2.011719 0.0976562 C 1.753906 0.0976562 1.515625 0.046875 1.296875 -0.046875 C 1.074219 -0.144531 0.910156 -0.269531 0.804688 -0.417969 C 0.695312 -0.566406 0.621094 -0.746094 0.578125 -0.960938 C 0.546875 -1.105469 0.53125 -1.332031 0.53125 -1.644531 L 0.53125 -4.320312 L 1.265625 -4.320312 L 1.265625 -1.925781 C 1.265625 -1.542969 1.28125 -1.285156 1.308594 -1.152344 C 1.355469 -0.957031 1.453125 -0.808594 1.601562 -0.699219 C 1.753906 -0.589844 1.9375 -0.53125 2.15625 -0.53125 C 2.375 -0.53125 2.582031 -0.589844 2.773438 -0.703125 C 2.96875 -0.816406 3.105469 -0.96875 3.183594 -1.160156 C 3.265625 -1.355469 3.304688 -1.636719 3.304688 -2.007812 L 3.304688 -4.320312 L 4.035156 -4.320312 L 4.035156 0 Z "/>
</g>
<g id="glyph-0-5">
</g>
<g id="glyph-0-6">
<path d="M 3.367188 -0.53125 C 3.097656 -0.300781 2.835938 -0.140625 2.585938 -0.0429688 C 2.335938 0.0507812 2.066406 0.0976562 1.777344 0.0976562 C 1.304688 0.0976562 0.9375 -0.0195312 0.683594 -0.25 C 0.429688 -0.480469 0.300781 -0.777344 0.300781 -1.140625 C 0.300781 -1.351562 0.347656 -1.542969 0.445312 -1.71875 C 0.542969 -1.894531 0.667969 -2.035156 0.824219 -2.140625 C 0.980469 -2.246094 1.15625 -2.324219 1.351562 -2.378906 C 1.496094 -2.417969 1.710938 -2.453125 2 -2.488281 C 2.59375 -2.5625 3.027344 -2.644531 3.308594 -2.742188 C 3.3125 -2.84375 3.3125 -2.90625 3.3125 -2.933594 C 3.3125 -3.230469 3.242188 -3.441406 3.105469 -3.5625 C 2.917969 -3.730469 2.640625 -3.8125 2.269531 -3.8125 C 1.925781 -3.8125 1.671875 -3.753906 1.507812 -3.632812 C 1.34375 -3.511719 1.222656 -3.296875 1.144531 -2.992188 L 0.425781 -3.089844 C 0.492188 -3.394531 0.597656 -3.640625 0.75 -3.832031 C 0.898438 -4.019531 1.113281 -4.164062 1.394531 -4.265625 C 1.679688 -4.367188 2.003906 -4.417969 2.375 -4.417969 C 2.746094 -4.417969 3.046875 -4.375 3.277344 -4.289062 C 3.507812 -4.203125 3.675781 -4.09375 3.785156 -3.960938 C 3.894531 -3.828125 3.96875 -3.664062 4.011719 -3.460938 C 4.035156 -3.339844 4.046875 -3.113281 4.046875 -2.789062 L 4.046875 -1.8125 C 4.046875 -1.128906 4.0625 -0.699219 4.09375 -0.519531 C 4.125 -0.339844 4.1875 -0.164062 4.28125 0 L 3.515625 0 C 3.441406 -0.152344 3.390625 -0.328125 3.367188 -0.53125 M 3.308594 -2.167969 C 3.042969 -2.058594 2.644531 -1.96875 2.113281 -1.890625 C 1.8125 -1.847656 1.597656 -1.800781 1.472656 -1.746094 C 1.347656 -1.691406 1.25 -1.613281 1.183594 -1.507812 C 1.117188 -1.402344 1.082031 -1.289062 1.082031 -1.160156 C 1.082031 -0.964844 1.15625 -0.800781 1.304688 -0.671875 C 1.453125 -0.542969 1.667969 -0.476562 1.953125 -0.476562 C 2.234375 -0.476562 2.484375 -0.539062 2.707031 -0.660156 C 2.925781 -0.785156 3.085938 -0.953125 3.191406 -1.167969 C 3.269531 -1.332031 3.308594 -1.578125 3.308594 -1.898438 L 3.308594 -2.167969 M 2.304688 -5.550781 L 1.84375 -4.859375 L 1.003906 -4.859375 L 1.882812 -5.996094 L 2.664062 -5.996094 L 3.582031 -4.859375 L 2.75 -4.859375 Z "/>
</g>
<g id="glyph-0-7">
<path d="M 0.550781 0 L 0.550781 -4.320312 L 1.203125 -4.320312 L 1.203125 -3.714844 C 1.339844 -3.925781 1.519531 -4.097656 1.746094 -4.226562 C 1.972656 -4.355469 2.226562 -4.417969 2.515625 -4.417969 C 2.835938 -4.417969 3.097656 -4.351562 3.300781 -4.21875 C 3.507812 -4.085938 3.652344 -3.902344 3.734375 -3.660156 C 4.078125 -4.167969 4.523438 -4.417969 5.070312 -4.417969 C 5.5 -4.417969 5.828125 -4.300781 6.058594 -4.0625 C 6.289062 -3.824219 6.40625 -3.460938 6.40625 -2.964844 L 6.40625 0 L 5.675781 0 L 5.675781 -2.722656 C 5.675781 -3.015625 5.652344 -3.226562 5.605469 -3.355469 C 5.558594 -3.484375 5.472656 -3.585938 5.347656 -3.667969 C 5.222656 -3.746094 5.074219 -3.785156 4.90625 -3.785156 C 4.601562 -3.785156 4.351562 -3.683594 4.148438 -3.480469 C 3.949219 -3.277344 3.847656 -2.957031 3.847656 -2.511719 L 3.847656 0 L 3.117188 0 L 3.117188 -2.808594 C 3.117188 -3.132812 3.058594 -3.378906 2.9375 -3.539062 C 2.820312 -3.703125 2.625 -3.785156 2.351562 -3.785156 C 2.144531 -3.785156 1.957031 -3.730469 1.78125 -3.621094 C 1.605469 -3.511719 1.476562 -3.355469 1.398438 -3.144531 C 1.320312 -2.9375 1.28125 -2.636719 1.28125 -2.242188 L 1.28125 0 Z "/>
</g>
</g>
</defs>
<g fill="rgb(88.627451%, 42.745098%, 35.294118%)" fill-opacity="1">
<use xlink:href="#glyph-0-0" x="30" y="27.543945"/>
<use xlink:href="#glyph-0-1" x="36" y="27.543945"/>
<use xlink:href="#glyph-0-2" x="41" y="27.543945"/>
<use xlink:href="#glyph-0-3" x="43" y="27.543945"/>
<use xlink:href="#glyph-0-4" x="48" y="27.543945"/>
<use xlink:href="#glyph-0-5" x="53" y="27.543945"/>
<use xlink:href="#glyph-0-6" x="55" y="27.543945"/>
<use xlink:href="#glyph-0-7" x="60" y="27.543945"/>
</g>
</svg>
