<?xml version="1.0" encoding="UTF-8"?>
<svg xmlns="http://www.w3.org/2000/svg" xmlns:xlink="http://www.w3.org/1999/xlink" width="1920" height="1080" viewBox="0 0 1920 1080">
<defs>
<g>
<g id="glyph-0-0">
<path d="M 0.734375 0 L 0.734375 -7.15625 L 1.679688 -7.15625 L 1.679688 -3.609375 L 5.234375 -7.15625 L 6.519531 -7.15625 L 3.515625 -4.257812 L 6.648438 0 L 5.398438 0 L 2.851562 -3.625 L 1.679688 -2.480469 L 1.679688 0 Z "/>
</g>
<g id="glyph-0-1">
<path d="M 4.210938 -1.671875 L 5.117188 -1.558594 C 4.972656 -1.027344 4.707031 -0.613281 4.320312 -0.320312 C 3.933594 -0.03125 3.4375 0.117188 2.835938 0.117188 C 2.078125 0.117188 1.476562 -0.117188 1.03125 -0.582031 C 0.589844 -1.050781 0.367188 -1.707031 0.367188 -2.546875 C 0.367188 -3.421875 0.589844 -4.097656 1.039062 -4.578125 C 1.488281 -5.0625 2.070312 -5.304688 2.789062 -5.304688 C 3.480469 -5.304688 4.046875 -5.066406 4.488281 -4.59375 C 4.925781 -4.121094 5.148438 -3.457031 5.148438 -2.601562 C 5.148438 -2.550781 5.144531 -2.472656 5.140625 -2.367188 L 1.273438 -2.367188 C 1.308594 -1.796875 1.46875 -1.363281 1.757812 -1.058594 C 2.046875 -0.757812 2.410156 -0.605469 2.84375 -0.605469 C 3.164062 -0.605469 3.4375 -0.691406 3.667969 -0.859375 C 3.894531 -1.027344 4.074219 -1.296875 4.210938 -1.671875 M 1.324219 -3.089844 L 4.21875 -3.089844 C 4.179688 -3.527344 4.070312 -3.855469 3.886719 -4.070312 C 3.605469 -4.410156 3.242188 -4.578125 2.796875 -4.578125 C 2.394531 -4.578125 2.054688 -4.445312 1.78125 -4.175781 C 1.503906 -3.90625 1.351562 -3.542969 1.324219 -3.089844 M 2.269531 -5.828125 L 2.921875 -7.195312 L 4.070312 -7.195312 L 3 -5.828125 Z "/>
</g>
<g id="glyph-0-2">
<path d="M 0.332031 -2.59375 C 0.332031 -3.554688 0.597656 -4.265625 1.132812 -4.726562 C 1.578125 -5.109375 2.121094 -5.304688 2.765625 -5.304688 C 3.476562 -5.304688 4.058594 -5.070312 4.511719 -4.601562 C 4.964844 -4.136719 5.191406 -3.488281 5.191406 -2.664062 C 5.191406 -2 5.089844 -1.472656 4.890625 -1.089844 C 4.691406 -0.707031 4.398438 -0.410156 4.015625 -0.199219 C 3.632812 0.0117188 3.214844 0.117188 2.765625 0.117188 C 2.039062 0.117188 1.449219 -0.117188 1.003906 -0.582031 C 0.554688 -1.046875 0.332031 -1.71875 0.332031 -2.59375 M 1.234375 -2.59375 C 1.234375 -1.929688 1.378906 -1.429688 1.671875 -1.101562 C 1.960938 -0.769531 2.324219 -0.605469 2.765625 -0.605469 C 3.199219 -0.605469 3.5625 -0.773438 3.851562 -1.101562 C 4.140625 -1.4375 4.289062 -1.941406 4.289062 -2.621094 C 4.289062 -3.261719 4.140625 -3.75 3.851562 -4.078125 C 3.558594 -4.410156 3.195312 -4.574219 2.765625 -4.574219 C 2.324219 -4.574219 1.960938 -4.410156 1.671875 -4.082031 C 1.378906 -3.753906 1.234375 -3.257812 1.234375 -2.59375 Z "/>
</g>
<g id="glyph-0-3">
</g>
<g id="glyph-0-4">
<path d="M 4.023438 0 L 4.023438 -0.65625 C 3.695312 -0.140625 3.210938 0.117188 2.574219 0.117188 C 2.160156 0.117188 1.78125 0.00390625 1.433594 -0.226562 C 1.085938 -0.453125 0.816406 -0.769531 0.628906 -1.179688 C 0.4375 -1.585938 0.34375 -2.058594 0.34375 -2.585938 C 0.34375 -3.105469 0.429688 -3.574219 0.601562 -3.996094 C 0.773438 -4.417969 1.03125 -4.742188 1.375 -4.964844 C 1.722656 -5.191406 2.109375 -5.304688 2.535156 -5.304688 C 2.847656 -5.304688 3.125 -5.238281 3.367188 -5.105469 C 3.613281 -4.972656 3.8125 -4.800781 3.964844 -4.589844 L 3.964844 -7.15625 L 4.839844 -7.15625 L 4.839844 0 L 4.023438 0 M 1.246094 -2.585938 C 1.246094 -1.921875 1.386719 -1.425781 1.664062 -1.097656 C 1.945312 -0.769531 2.273438 -0.605469 2.65625 -0.605469 C 3.039062 -0.605469 3.367188 -0.761719 3.636719 -1.078125 C 3.902344 -1.390625 4.039062 -1.871094 4.039062 -2.515625 C 4.039062 -3.222656 3.902344 -3.746094 3.628906 -4.078125 C 3.355469 -4.410156 3.015625 -4.574219 2.617188 -4.574219 C 2.226562 -4.574219 1.898438 -4.414062 1.636719 -4.097656 C 1.375 -3.777344 1.246094 -3.273438 1.246094 -2.585938 Z "/>
</g>
<g id="glyph-0-5">
<path d="M 4.042969 -0.640625 C 3.71875 -0.363281 3.402344 -0.167969 3.101562 -0.0546875 C 2.800781 0.0585938 2.480469 0.117188 2.132812 0.117188 C 1.5625 0.117188 1.125 -0.0234375 0.820312 -0.300781 C 0.515625 -0.578125 0.359375 -0.933594 0.359375 -1.367188 C 0.359375 -1.621094 0.417969 -1.851562 0.535156 -2.0625 C 0.648438 -2.273438 0.800781 -2.441406 0.988281 -2.570312 C 1.175781 -2.695312 1.386719 -2.792969 1.621094 -2.855469 C 1.792969 -2.902344 2.054688 -2.945312 2.402344 -2.988281 C 3.113281 -3.074219 3.632812 -3.171875 3.96875 -3.289062 C 3.972656 -3.410156 3.976562 -3.488281 3.976562 -3.519531 C 3.976562 -3.878906 3.890625 -4.128906 3.726562 -4.277344 C 3.5 -4.476562 3.167969 -4.574219 2.726562 -4.574219 C 2.3125 -4.574219 2.007812 -4.503906 1.808594 -4.359375 C 1.613281 -4.214844 1.464844 -3.957031 1.371094 -3.589844 L 0.511719 -3.707031 C 0.589844 -4.074219 0.71875 -4.371094 0.898438 -4.597656 C 1.078125 -4.824219 1.335938 -4.996094 1.675781 -5.121094 C 2.011719 -5.242188 2.40625 -5.304688 2.851562 -5.304688 C 3.292969 -5.304688 3.652344 -5.25 3.929688 -5.148438 C 4.207031 -5.042969 4.410156 -4.910156 4.539062 -4.753906 C 4.671875 -4.59375 4.761719 -4.394531 4.8125 -4.15625 C 4.84375 -4.003906 4.859375 -3.734375 4.859375 -3.34375 L 4.859375 -2.171875 C 4.859375 -1.355469 4.878906 -0.839844 4.914062 -0.621094 C 4.953125 -0.40625 5.027344 -0.199219 5.136719 0 L 4.21875 0 C 4.128906 -0.183594 4.070312 -0.394531 4.042969 -0.640625 M 3.96875 -2.601562 C 3.652344 -2.472656 3.171875 -2.363281 2.535156 -2.269531 C 2.171875 -2.21875 1.917969 -2.160156 1.765625 -2.09375 C 1.617188 -2.03125 1.503906 -1.933594 1.421875 -1.808594 C 1.339844 -1.683594 1.296875 -1.542969 1.296875 -1.390625 C 1.296875 -1.15625 1.386719 -0.960938 1.566406 -0.804688 C 1.742188 -0.648438 2 -0.570312 2.34375 -0.570312 C 2.683594 -0.570312 2.984375 -0.644531 3.246094 -0.792969 C 3.511719 -0.941406 3.703125 -1.144531 3.828125 -1.402344 C 3.921875 -1.601562 3.96875 -1.894531 3.96875 -2.28125 L 3.96875 -2.601562 M 3.492188 -5.828125 L 2.78125 -5.828125 L 1.65625 -7.195312 L 2.832031 -7.195312 Z "/>
</g>
<g id="glyph-0-6">
<path d="M 0.664062 -6.148438 L 0.664062 -7.15625 L 1.542969 -7.15625 L 1.542969 -6.148438 L 0.664062 -6.148438 M 0.664062 0 L 0.664062 -5.1875 L 1.542969 -5.1875 L 1.542969 0 Z "/>
</g>
<g id="glyph-0-7">
<path d="M 2.101562 0 L 0.125 -5.1875 L 1.054688 -5.1875 L 2.167969 -2.078125 C 2.289062 -1.746094 2.398438 -1.398438 2.5 -1.035156 C 2.578125 -1.308594 2.6875 -1.636719 2.828125 -2.023438 L 3.980469 -5.1875 L 4.882812 -5.1875 L 2.921875 0 Z "/>
</g>
<g id="glyph-0-8">
<path d="M 0.332031 -2.59375 C 0.332031 -3.554688 0.597656 -4.265625 1.132812 -4.726562 C 1.578125 -5.109375 2.121094 -5.304688 2.765625 -5.304688 C 3.476562 -5.304688 4.058594 -5.070312 4.511719 -4.601562 C 4.964844 -4.136719 5.191406 -3.488281 5.191406 -2.664062 C 5.191406 -2 5.089844 -1.472656 4.890625 -1.089844 C 4.691406 -0.707031 4.398438 -0.410156 4.015625 -0.199219 C 3.632812 0.0117188 3.214844 0.117188 2.765625 0.117188 C 2.039062 0.117188 1.449219 -0.117188 1.003906 -0.582031 C 0.554688 -1.046875 0.332031 -1.71875 0.332031 -2.59375 M 1.234375 -2.59375 C 1.234375 -1.929688 1.378906 -1.429688 1.671875 -1.101562 C 1.960938 -0.769531 2.324219 -0.605469 2.765625 -0.605469 C 3.199219 -0.605469 3.5625 -0.773438 3.851562 -1.101562 C 4.140625 -1.4375 4.289062 -1.941406 4.289062 -2.621094 C 4.289062 -3.261719 4.140625 -3.75 3.851562 -4.078125 C 3.558594 -4.410156 3.195312 -4.574219 2.765625 -4.574219 C 2.324219 -4.574219 1.960938 -4.410156 1.671875 -4.082031 C 1.378906 -3.753906 1.234375 -3.257812 1.234375 -2.59375 M 2.773438 -6.660156 L 2.222656 -5.828125 L 1.214844 -5.828125 L 2.269531 -7.195312 L 3.207031 -7.195312 L 4.304688 -5.828125 L 3.3125 -5.828125 Z "/>
</g>
<g id="glyph-0-9">
<path d="M 0.660156 0 L 0.660156 -7.15625 L 1.539062 -7.15625 L 1.539062 -4.589844 C 1.949219 -5.066406 2.464844 -5.304688 3.089844 -5.304688 C 3.476562 -5.304688 3.808594 -5.226562 4.09375 -5.074219 C 4.375 -4.925781 4.578125 -4.714844 4.699219 -4.449219 C 4.820312 -4.179688 4.882812 -3.792969 4.882812 -3.285156 L 4.882812 0 L 4.003906 0 L 4.003906 -3.285156 C 4.003906 -3.726562 3.910156 -4.046875 3.71875 -4.246094 C 3.527344 -4.445312 3.257812 -4.546875 2.910156 -4.546875 C 2.648438 -4.546875 2.40625 -4.476562 2.175781 -4.34375 C 1.945312 -4.207031 1.78125 -4.023438 1.683594 -3.792969 C 1.585938 -3.5625 1.539062 -3.242188 1.539062 -2.835938 L 1.539062 0 Z "/>
</g>
<g id="glyph-0-10">
<path d="M 4.042969 -0.640625 C 3.71875 -0.363281 3.402344 -0.167969 3.101562 -0.0546875 C 2.800781 0.0585938 2.480469 0.117188 2.132812 0.117188 C 1.5625 0.117188 1.125 -0.0234375 0.820312 -0.300781 C 0.515625 -0.578125 0.359375 -0.933594 0.359375 -1.367188 C 0.359375 -1.621094 0.417969 -1.851562 0.535156 -2.0625 C 0.648438 -2.273438 0.800781 -2.441406 0.988281 -2.570312 C 1.175781 -2.695312 1.386719 -2.792969 1.621094 -2.855469 C 1.792969 -2.902344 2.054688 -2.945312 2.402344 -2.988281 C 3.113281 -3.074219 3.632812 -3.171875 3.96875 -3.289062 C 3.972656 -3.410156 3.976562 -3.488281 3.976562 -3.519531 C 3.976562 -3.878906 3.890625 -4.128906 3.726562 -4.277344 C 3.5 -4.476562 3.167969 -4.574219 2.726562 -4.574219 C 2.3125 -4.574219 2.007812 -4.503906 1.808594 -4.359375 C 1.613281 -4.214844 1.464844 -3.957031 1.371094 -3.589844 L 0.511719 -3.707031 C 0.589844 -4.074219 0.71875 -4.371094 0.898438 -4.597656 C 1.078125 -4.824219 1.335938 -4.996094 1.675781 -5.121094 C 2.011719 -5.242188 2.40625 -5.304688 2.851562 -5.304688 C 3.292969 -5.304688 3.652344 -5.25 3.929688 -5.148438 C 4.207031 -5.042969 4.410156 -4.910156 4.539062 -4.753906 C 4.671875 -4.59375 4.761719 -4.394531 4.8125 -4.15625 C 4.84375 -4.003906 4.859375 -3.734375 4.859375 -3.34375 L 4.859375 -2.171875 C 4.859375 -1.355469 4.878906 -0.839844 4.914062 -0.621094 C 4.953125 -0.40625 5.027344 -0.199219 5.136719 0 L 4.21875 0 C 4.128906 -0.183594 4.070312 -0.394531 4.042969 -0.640625 M 3.96875 -2.601562 C 3.652344 -2.472656 3.171875 -2.363281 2.535156 -2.269531 C 2.171875 -2.21875 1.917969 -2.160156 1.765625 -2.09375 C 1.617188 -2.03125 1.503906 -1.933594 1.421875 -1.808594 C 1.339844 -1.683594 1.296875 -1.542969 1.296875 -1.390625 C 1.296875 -1.15625 1.386719 -0.960938 1.566406 -0.804688 C 1.742188 -0.648438 2 -0.570312 2.34375 -0.570312 C 2.683594 -0.570312 2.984375 -0.644531 3.246094 -0.792969 C 3.511719 -0.941406 3.703125 -1.144531 3.828125 -1.402344 C 3.921875 -1.601562 3.96875 -1.894531 3.96875 -2.28125 L 3.96875 -2.601562 M 2.234375 1.585938 L 2.234375 0.585938 L 3.238281 0.585938 L 3.238281 1.585938 Z "/>
</g>
<g id="glyph-0-11">
<path d="M 0.660156 0 L 0.660156 -5.1875 L 1.449219 -5.1875 L 1.449219 -4.449219 C 1.832031 -5.019531 2.382812 -5.304688 3.101562 -5.304688 C 3.414062 -5.304688 3.699219 -5.246094 3.960938 -5.132812 C 4.222656 -5.023438 4.421875 -4.875 4.550781 -4.691406 C 4.679688 -4.511719 4.773438 -4.292969 4.824219 -4.042969 C 4.855469 -3.878906 4.875 -3.59375 4.875 -3.1875 L 4.875 0 L 3.992188 0 L 3.992188 -3.15625 C 3.992188 -3.511719 3.960938 -3.78125 3.890625 -3.957031 C 3.824219 -4.136719 3.703125 -4.277344 3.527344 -4.382812 C 3.355469 -4.488281 3.148438 -4.539062 2.914062 -4.539062 C 2.539062 -4.539062 2.21875 -4.421875 1.945312 -4.183594 C 1.675781 -3.945312 1.539062 -3.496094 1.539062 -2.832031 L 1.539062 0 Z "/>
</g>
<g id="glyph-0-12">
<path d="M 4.210938 -1.671875 L 5.117188 -1.558594 C 4.972656 -1.027344 4.707031 -0.613281 4.320312 -0.320312 C 3.933594 -0.03125 3.4375 0.117188 2.835938 0.117188 C 2.078125 0.117188 1.476562 -0.117188 1.03125 -0.582031 C 0.589844 -1.050781 0.367188 -1.707031 0.367188 -2.546875 C 0.367188 -3.421875 0.589844 -4.097656 1.039062 -4.578125 C 1.488281 -5.0625 2.070312 -5.304688 2.789062 -5.304688 C 3.480469 -5.304688 4.046875 -5.066406 4.488281 -4.59375 C 4.925781 -4.121094 5.148438 -3.457031 5.148438 -2.601562 C 5.148438 -2.550781 5.144531 -2.472656 5.140625 -2.367188 L 1.273438 -2.367188 C 1.308594 -1.796875 1.46875 -1.363281 1.757812 -1.058594 C 2.046875 -0.757812 2.410156 -0.605469 2.84375 -0.605469 C 3.164062 -0.605469 3.4375 -0.691406 3.667969 -0.859375 C 3.894531 -1.027344 4.074219 -1.296875 4.210938 -1.671875 M 1.324219 -3.089844 L 4.21875 -3.089844 C 4.179688 -3.527344 4.070312 -3.855469 3.886719 -4.070312 C 3.605469 -4.410156 3.242188 -4.578125 2.796875 -4.578125 C 2.394531 -4.578125 2.054688 -4.445312 1.78125 -4.175781 C 1.503906 -3.90625 1.351562 -3.542969 1.324219 -3.089844 M 2.769531 -6.660156 L 2.21875 -5.828125 L 1.210938 -5.828125 L 2.265625 -7.195312 L 3.203125 -7.195312 L 4.300781 -5.828125 L 3.304688 -5.828125 L 2.769531 -6.660156 M 3.203125 -7.554688 L 2.496094 -7.554688 L 1.367188 -8.921875 L 2.542969 -8.921875 Z "/>
</g>
<g id="glyph-0-13">
<path d="M 5.035156 -0.84375 L 5.035156 0 L 0.304688 0 C 0.296875 -0.210938 0.332031 -0.414062 0.40625 -0.609375 C 0.527344 -0.933594 0.71875 -1.25 0.984375 -1.5625 C 1.25 -1.875 1.632812 -2.234375 2.132812 -2.648438 C 2.910156 -3.285156 3.4375 -3.789062 3.710938 -4.164062 C 3.984375 -4.535156 4.121094 -4.886719 4.121094 -5.21875 C 4.121094 -5.566406 3.996094 -5.863281 3.746094 -6.101562 C 3.5 -6.339844 3.171875 -6.460938 2.773438 -6.460938 C 2.351562 -6.460938 2.011719 -6.332031 1.757812 -6.078125 C 1.503906 -5.824219 1.375 -5.472656 1.371094 -5.023438 L 0.46875 -5.117188 C 0.53125 -5.789062 0.761719 -6.304688 1.167969 -6.65625 C 1.570312 -7.011719 2.113281 -7.1875 2.792969 -7.1875 C 3.480469 -7.1875 4.023438 -6.996094 4.421875 -6.617188 C 4.824219 -6.234375 5.023438 -5.761719 5.023438 -5.199219 C 5.023438 -4.914062 4.964844 -4.632812 4.847656 -4.355469 C 4.730469 -4.078125 4.535156 -3.789062 4.265625 -3.480469 C 3.992188 -3.175781 3.542969 -2.753906 2.910156 -2.222656 C 2.382812 -1.777344 2.042969 -1.480469 1.894531 -1.320312 C 1.746094 -1.164062 1.621094 -1.003906 1.523438 -0.84375 Z "/>
</g>
<g id="glyph-0-14">
<path d="M 0.660156 1.988281 L 0.660156 -5.1875 L 1.460938 -5.1875 L 1.460938 -4.511719 C 1.648438 -4.773438 1.863281 -4.972656 2.101562 -5.105469 C 2.335938 -5.238281 2.625 -5.304688 2.964844 -5.304688 C 3.40625 -5.304688 3.796875 -5.1875 4.136719 -4.960938 C 4.472656 -4.734375 4.730469 -4.410156 4.902344 -3.996094 C 5.074219 -3.582031 5.160156 -3.125 5.160156 -2.632812 C 5.160156 -2.101562 5.066406 -1.625 4.875 -1.199219 C 4.683594 -0.773438 4.410156 -0.449219 4.046875 -0.222656 C 3.683594 0.00390625 3.300781 0.117188 2.898438 0.117188 C 2.609375 0.117188 2.34375 0.0546875 2.113281 -0.0703125 C 1.878906 -0.191406 1.6875 -0.347656 1.539062 -0.539062 L 1.539062 1.988281 L 0.660156 1.988281 M 1.453125 -2.5625 C 1.453125 -1.894531 1.589844 -1.402344 1.859375 -1.085938 C 2.128906 -0.765625 2.457031 -0.605469 2.84375 -0.605469 C 3.234375 -0.605469 3.566406 -0.769531 3.84375 -1.101562 C 4.125 -1.429688 4.261719 -1.945312 4.261719 -2.636719 C 4.261719 -3.296875 4.125 -3.792969 3.855469 -4.121094 C 3.582031 -4.449219 3.257812 -4.613281 2.882812 -4.613281 C 2.507812 -4.613281 2.175781 -4.4375 1.886719 -4.089844 C 1.597656 -3.738281 1.453125 -3.230469 1.453125 -2.5625 Z "/>
</g>
<g id="glyph-0-15">
<path d="M 0.96875 0 L 0.96875 -5.1875 L 1.84375 -5.1875 L 1.84375 0 L 0.96875 0 M 0.921875 -5.828125 L 1.570312 -7.195312 L 2.726562 -7.195312 L 1.648438 -5.828125 Z "/>
</g>
<g id="glyph-0-16">
<path d="M 4.042969 -0.640625 C 3.71875 -0.363281 3.402344 -0.167969 3.101562 -0.0546875 C 2.800781 0.0585938 2.480469 0.117188 2.132812 0.117188 C 1.5625 0.117188 1.125 -0.0234375 0.820312 -0.300781 C 0.515625 -0.578125 0.359375 -0.933594 0.359375 -1.367188 C 0.359375 -1.621094 0.417969 -1.851562 0.535156 -2.0625 C 0.648438 -2.273438 0.800781 -2.441406 0.988281 -2.570312 C 1.175781 -2.695312 1.386719 -2.792969 1.621094 -2.855469 C 1.792969 -2.902344 2.054688 -2.945312 2.402344 -2.988281 C 3.113281 -3.074219 3.632812 -3.171875 3.96875 -3.289062 C 3.972656 -3.410156 3.976562 -3.488281 3.976562 -3.519531 C 3.976562 -3.878906 3.890625 -4.128906 3.726562 -4.277344 C 3.5 -4.476562 3.167969 -4.574219 2.726562 -4.574219 C 2.3125 -4.574219 2.007812 -4.503906 1.808594 -4.359375 C 1.613281 -4.214844 1.464844 -3.957031 1.371094 -3.589844 L 0.511719 -3.707031 C 0.589844 -4.074219 0.71875 -4.371094 0.898438 -4.597656 C 1.078125 -4.824219 1.335938 -4.996094 1.675781 -5.121094 C 2.011719 -5.242188 2.40625 -5.304688 2.851562 -5.304688 C 3.292969 -5.304688 3.652344 -5.25 3.929688 -5.148438 C 4.207031 -5.042969 4.410156 -4.910156 4.539062 -4.753906 C 4.671875 -4.59375 4.761719 -4.394531 4.8125 -4.15625 C 4.84375 -4.003906 4.859375 -3.734375 4.859375 -3.34375 L 4.859375 -2.171875 C 4.859375 -1.355469 4.878906 -0.839844 4.914062 -0.621094 C 4.953125 -0.40625 5.027344 -0.199219 5.136719 0 L 4.21875 0 C 4.128906 -0.183594 4.070312 -0.394531 4.042969 -0.640625 M 3.96875 -2.601562 C 3.652344 -2.472656 3.171875 -2.363281 2.535156 -2.269531 C 2.171875 -2.21875 1.917969 -2.160156 1.765625 -2.09375 C 1.617188 -2.03125 1.503906 -1.933594 1.421875 -1.808594 C 1.339844 -1.683594 1.296875 -1.542969 1.296875 -1.390625 C 1.296875 -1.15625 1.386719 -0.960938 1.566406 -0.804688 C 1.742188 -0.648438 2 -0.570312 2.34375 -0.570312 C 2.683594 -0.570312 2.984375 -0.644531 3.246094 -0.792969 C 3.511719 -0.941406 3.703125 -1.144531 3.828125 -1.402344 C 3.921875 -1.601562 3.96875 -1.894531 3.96875 -2.28125 Z "/>
</g>
</g>
</defs>
<g fill="rgb(96.862745%, 85.098039%, 43.529412%)" fill-opacity="1">
<use xlink:href="#glyph-0-0" x="30" y="29.052734"/>
<use xlink:href="#glyph-0-1" x="37" y="29.052734"/>
<use xlink:href="#glyph-0-2" x="43" y="29.052734"/>
<use xlink:href="#glyph-0-3" x="49" y="29.052734"/>
<use xlink:href="#glyph-0-4" x="52" y="29.052734"/>
<use xlink:href="#glyph-0-5" x="58" y="29.052734"/>
<use xlink:href="#glyph-0-6" x="64" y="29.052734"/>
<use xlink:href="#glyph-0-3" x="66" y="29.052734"/>
<use xlink:href="#glyph-0-7" x="69" y="29.052734"/>
<use xlink:href="#glyph-0-8" x="74" y="29.052734"/>
<use xlink:href="#glyph-0-3" x="80" y="29.052734"/>
<use xlink:href="#glyph-0-9" x="83" y="29.052734"/>
<use xlink:href="#glyph-0-10" x="89" y="29.052734"/>
<use xlink:href="#glyph-0-11" x="95" y="29.052734"/>
<use xlink:href="#glyph-0-3" x="101" y="29.052734"/>
<use xlink:href="#glyph-0-7" x="104" y="29.052734"/>
<use xlink:href="#glyph-0-12" x="109" y="29.052734"/>
<use xlink:href="#glyph-0-3" x="115" y="29.052734"/>
<use xlink:href="#glyph-0-13" x="118" y="29.052734"/>
<use xlink:href="#glyph-0-3" x="124" y="29.052734"/>
<use xlink:href="#glyph-0-14" x="127" y="29.052734"/>
<use xlink:href="#glyph-0-9" x="133" y="29.052734"/>
<use xlink:href="#glyph-0-15" x="139" y="29.052734"/>
<use xlink:href="#glyph-0-16" x="142" y="29.052734"/>
</g>
</svg>
